<svg xmlns="http://www.w3.org/2000/svg" xmlns:xlink="http://www.w3.org/1999/xlink" width="848" height="743" fill="#000" fill-opacity="1" stroke="#000" stroke-dasharray="none" stroke-dashoffset="0" stroke-linecap="square" stroke-linejoin="miter" stroke-miterlimit="10" stroke-opacity="1" stroke-width="1" color-interpolation="auto" color-rendering="auto" font-family="'Dialog'" font-size="12" font-style="normal" font-weight="normal" image-rendering="auto" shape-rendering="auto" text-rendering="auto"><g><defs id="defs1"><clipPath id="clipPath1" clipPathUnits="userSpaceOnUse"><path d="M0 0 L848 0 L848 743 L0 743 L0 0 Z"/></clipPath><clipPath id="clipPath2" clipPathUnits="userSpaceOnUse"><path d="M-429 -380 L419 -380 L419 363 L-429 363 L-429 -380 Z"/></clipPath><clipPath id="clipPath3" clipPathUnits="userSpaceOnUse"><path d="M0 0 L0 17 L590 17 L590 0 Z"/></clipPath><clipPath id="clipPath4" clipPathUnits="userSpaceOnUse"><path d="M0 0 L0 17 L297 17 L297 0 Z"/></clipPath><clipPath id="clipPath5" clipPathUnits="userSpaceOnUse"><path d="M0 0 L0 17 L564 17 L564 0 Z"/></clipPath><clipPath id="clipPath6" clipPathUnits="userSpaceOnUse"><path d="M0 0 L0 17 L92 17 L92 0 Z"/></clipPath><clipPath id="clipPath7" clipPathUnits="userSpaceOnUse"><path d="M0 0 L0 17 L469 17 L469 0 Z"/></clipPath><script type="text/ecmascript"><![CDATA[      var SVGDocument = null;
      var SVGRoot = null;
      var TrueCoords = null;
      var lastElement = null;
      var initialized = null;
      var tipGroup;
      function Init(evt)
      {
         SVGDocument = evt.target.ownerDocument;
         SVGRoot = SVGDocument.documentElement;
         TrueCoords = SVGRoot.createSVGPoint();
         initialized = evt;
      };
      function GetTrueCoords(evt)
      {
         var newScale = SVGRoot.currentScale;
         var translation = SVGRoot.currentTranslate;
         TrueCoords.x = (evt.clientX - translation.x)/newScale;
         TrueCoords.y = (evt.clientY - translation.y)/newScale;
      };
      function HideTooltip( evt )
      {
         if(initialized == null) {
           Init(evt);
         }
         if(tipGroup != null) {
           tipGroup.setAttributeNS(null, 'visibility', 'hidden');
         }
      };
      function ShowTooltip( evt )
      {
         if(initialized == null) {
           Init(evt);
         }
         GetTrueCoords( evt );
         var tipScale = 1/SVGRoot.currentScale;
         var targetElement = evt.currentTarget;
         if ( lastElement != targetElement )
         {
            var targetId = targetElement.getAttributeNS(null, 'id');
            var tipId = 'tooltip.' + targetId;
            tipGroup = SVGDocument.getElementById(tipId);
            var xPos = TrueCoords.x + (10 * tipScale);
            var yPos = TrueCoords.y + (10 * tipScale);
            tipGroup.setAttributeNS(null, 'transform', 'translate(' + xPos + ',' + yPos + ') scale(' + tipScale + ')');
            tipGroup.setAttributeNS(null, 'visibility', 'visible');
         }
      };
]]></script></defs><g fill="#fff" stroke="#fff" shape-rendering="geometricPrecision" text-rendering="geometricPrecision" transform="translate(429,380)"><rect width="848" height="743" x="-429" y="-380" stroke="none" clip-path="url(#clipPath2)"/></g><g id="y.node.0"><a xlink:href="https://proot-me.github.io"><g fill="#F90" stroke="#F90" shape-rendering="geometricPrecision" text-rendering="geometricPrecision" transform="matrix(1,0,0,1,429,380)"><ellipse cx="0" cy="0" stroke="none" rx="24.766" ry="15"/></g><g><g stroke-linecap="butt" stroke-miterlimit="1.45" font-family="'DejaVu Sans'" font-weight="bold" shape-rendering="geometricPrecision" text-rendering="geometricPrecision"><text x="-17.766" y="4.154" stroke="none" transform="matrix(1,0,0,1,429,380)" xml:space="preserve">CARE</text></g></g><g stroke-linecap="butt" stroke-miterlimit="1.45" shape-rendering="geometricPrecision" text-rendering="geometricPrecision" transform="matrix(1,0,0,1,429,380)"><ellipse cx="0" cy="0" fill="none" rx="24.766" ry="15"/></g></a></g><g id="y.node.1" onmousemove="ShowTooltip(evt)" onmouseout="HideTooltip(evt)"><g fill="#9FF" stroke="#9FF" shape-rendering="geometricPrecision" text-rendering="geometricPrecision" transform="matrix(1,0,0,1,429,380)"><ellipse cx="200.803" cy="-286.668" stroke="none" rx="24.464" ry="15"/></g><g><g stroke-linecap="butt" stroke-miterlimit="1.45" font-family="'DejaVu Sans'" font-weight="bold" shape-rendering="geometricPrecision" text-rendering="geometricPrecision"><text x="183.339" y="-282.513" stroke="none" transform="matrix(1,0,0,1,429,380)" xml:space="preserve">Gogo</text></g></g><g stroke-linecap="butt" stroke-miterlimit="1.45" shape-rendering="geometricPrecision" text-rendering="geometricPrecision" transform="matrix(1,0,0,1,429,380)"><ellipse cx="200.803" cy="-286.668" fill="none" rx="24.464" ry="15"/></g></g><g id="y.node.2" onmousemove="ShowTooltip(evt)" onmouseout="HideTooltip(evt)"><g fill="#9FF" stroke="#9FF" shape-rendering="geometricPrecision" text-rendering="geometricPrecision" transform="matrix(1,0,0,1,429,380)"><ellipse cx="332.529" cy="-109.199" stroke="none" rx="71.236" ry="15"/></g><g><g stroke-linecap="butt" stroke-miterlimit="1.45" font-family="'DejaVu Sans'" font-weight="bold" shape-rendering="geometricPrecision" text-rendering="geometricPrecision"><text x="268.293" y="-105.045" stroke="none" transform="matrix(1,0,0,1,429,380)" xml:space="preserve">STMicroelectronics</text></g></g><g stroke-linecap="butt" stroke-miterlimit="1.45" shape-rendering="geometricPrecision" text-rendering="geometricPrecision" transform="matrix(1,0,0,1,429,380)"><ellipse cx="332.529" cy="-109.199" fill="none" rx="71.236" ry="15"/></g></g><g id="y.node.3"><g><g stroke-linecap="butt" stroke-miterlimit="1.45" font-family="'DejaVu Sans'" font-weight="bold" shape-rendering="geometricPrecision" text-rendering="geometricPrecision"><text x="91.618" y="-77.487" stroke="none" transform="matrix(1,0,0,1,429,380)" xml:space="preserve">is used by</text></g></g><g stroke-linecap="butt" stroke-miterlimit="1.45" shape-rendering="geometricPrecision" text-rendering="geometricPrecision" transform="matrix(1,0,0,1,429,380)"><rect width="82.438" height="30" x="84.618" y="-96.641" fill="none"/></g></g><g id="y.node.4"><g><g stroke-linecap="butt" stroke-miterlimit="1.45" font-family="'DejaVu Sans'" font-weight="bold" shape-rendering="geometricPrecision" text-rendering="geometricPrecision"><text x="-156.155" y="-103.002" stroke="none" transform="matrix(1,0,0,1,429,380)" xml:space="preserve">is presented at</text></g></g><g stroke-linecap="butt" stroke-miterlimit="1.45" shape-rendering="geometricPrecision" text-rendering="geometricPrecision" transform="matrix(1,0,0,1,429,380)"><rect width="116.381" height="30" x="-163.155" y="-122.156" fill="none"/></g></g><g id="y.node.5" onmousemove="ShowTooltip(evt)" onmouseout="HideTooltip(evt)"><g fill="#CFC" stroke="#CFC" shape-rendering="geometricPrecision" text-rendering="geometricPrecision" transform="matrix(1,0,0,1,429,380)"><ellipse cx="-109.886" cy="332.303" stroke="none" rx="48.124" ry="15"/></g><g><g stroke-linecap="butt" stroke-miterlimit="1.45" font-family="'DejaVu Sans'" font-weight="bold" shape-rendering="geometricPrecision" text-rendering="geometricPrecision"><text x="-151.011" y="336.457" stroke="none" transform="matrix(1,0,0,1,429,380)" xml:space="preserve">Linaro LAVA</text></g></g><g stroke-linecap="butt" stroke-miterlimit="1.45" shape-rendering="geometricPrecision" text-rendering="geometricPrecision" transform="matrix(1,0,0,1,429,380)"><ellipse cx="-109.886" cy="332.303" fill="none" rx="48.124" ry="15"/></g></g><g id="y.node.6"><g><g stroke-linecap="butt" stroke-miterlimit="1.45" font-family="'DejaVu Sans'" font-weight="bold" shape-rendering="geometricPrecision" text-rendering="geometricPrecision"><text x="59.47" y="113.71" stroke="none" transform="matrix(1,0,0,1,429,380)" xml:space="preserve">is shipped in</text></g></g><g stroke-linecap="butt" stroke-miterlimit="1.45" shape-rendering="geometricPrecision" text-rendering="geometricPrecision" transform="matrix(1,0,0,1,429,380)"><rect width="99.975" height="30" x="52.47" y="94.556" fill="none"/></g></g><g id="y.node.7"><a xlink:href="https://aur.archlinux.org/packages/care/"><g fill="#CCF" stroke="#CCF" shape-rendering="geometricPrecision" text-rendering="geometricPrecision" transform="matrix(1,0,0,1,429,380)"><ellipse cx="313.925" cy="154.762" stroke="none" rx="42.813" ry="15"/></g><g><g stroke-linecap="butt" stroke-miterlimit="1.45" font-family="'DejaVu Sans'" font-weight="bold" shape-rendering="geometricPrecision" text-rendering="geometricPrecision"><text x="278.113" y="158.916" stroke="none" transform="matrix(1,0,0,1,429,380)" xml:space="preserve">Arch Linux</text></g></g><g stroke-linecap="butt" stroke-miterlimit="1.45" shape-rendering="geometricPrecision" text-rendering="geometricPrecision" transform="matrix(1,0,0,1,429,380)"><ellipse cx="313.925" cy="154.762" fill="none" rx="42.813" ry="15"/></g></a></g><g id="y.node.8"><a xlink:href="http://packages.gentoo.org/package/sys-apps/proot"><g fill="#CCF" stroke="#CCF" shape-rendering="geometricPrecision" text-rendering="geometricPrecision" transform="matrix(1,0,0,1,429,380)"><ellipse cx="123.572" cy="327.46" stroke="none" rx="31.378" ry="15"/></g><g><g stroke-linecap="butt" stroke-miterlimit="1.45" font-family="'DejaVu Sans'" font-weight="bold" shape-rendering="geometricPrecision" text-rendering="geometricPrecision"><text x="99.194" y="331.614" stroke="none" transform="matrix(1,0,0,1,429,380)" xml:space="preserve">Gentoo</text></g></g><g stroke-linecap="butt" stroke-miterlimit="1.45" shape-rendering="geometricPrecision" text-rendering="geometricPrecision" transform="matrix(1,0,0,1,429,380)"><ellipse cx="123.572" cy="327.46" fill="none" rx="31.378" ry="15"/></g></a></g><g id="y.node.9"><a xlink:href="http://www.slideshare.net/linaroorg/lcu14-211-lava-use-cases-sw-testing-reproducing-a-lava-failures-locally-using-care"><g fill="#FF9" stroke="#FF9" shape-rendering="geometricPrecision" text-rendering="geometricPrecision" transform="matrix(1,0,0,1,429,380)"><ellipse cx="8.66" cy="-349.893" stroke="none" rx="76.721" ry="15"/></g><g><g stroke-linecap="butt" stroke-miterlimit="1.45" font-family="'DejaVu Sans'" font-weight="bold" shape-rendering="geometricPrecision" text-rendering="geometricPrecision"><text x="-61.06" y="-345.739" stroke="none" transform="matrix(1,0,0,1,429,380)" xml:space="preserve">Linaro Connect 2014</text></g></g><g stroke-linecap="butt" stroke-miterlimit="1.45" shape-rendering="geometricPrecision" text-rendering="geometricPrecision" transform="matrix(1,0,0,1,429,380)"><ellipse cx="8.66" cy="-349.893" fill="none" rx="76.721" ry="15"/></g></a></g><g id="y.node.10"><a xlink:href="http://ctuning.org/cm/wiki/index.php?title=Events:TRUST2014"><g fill="#FF9" stroke="#FF9" shape-rendering="geometricPrecision" text-rendering="geometricPrecision" transform="matrix(1,0,0,1,429,380)"><ellipse cx="-183.282" cy="-298.174" stroke="none" rx="47.787" ry="15"/></g><g><g stroke-linecap="butt" stroke-miterlimit="1.45" font-family="'DejaVu Sans'" font-weight="bold" shape-rendering="geometricPrecision" text-rendering="geometricPrecision"><text x="-224.069" y="-294.019" stroke="none" transform="matrix(1,0,0,1,429,380)" xml:space="preserve">TRUST 2014</text></g></g><g stroke-linecap="butt" stroke-miterlimit="1.45" shape-rendering="geometricPrecision" text-rendering="geometricPrecision" transform="matrix(1,0,0,1,429,380)"><ellipse cx="-183.282" cy="-298.174" fill="none" rx="47.787" ry="15"/></g></a></g><g id="y.node.11"><a xlink:href="http://www.openmole.org/documentation/tutorials/embed-r-scilab/"><g fill="#CFC" stroke="#CFC" shape-rendering="geometricPrecision" text-rendering="geometricPrecision" transform="matrix(1,0,0,1,429,380)"><ellipse cx="-282.373" cy="206.798" stroke="none" rx="40.955" ry="15"/></g><g><g stroke-linecap="butt" stroke-miterlimit="1.45" font-family="'DejaVu Sans'" font-weight="bold" shape-rendering="geometricPrecision" text-rendering="geometricPrecision"><text x="-316.328" y="210.952" stroke="none" transform="matrix(1,0,0,1,429,380)" xml:space="preserve">OpenMole</text></g></g><g stroke-linecap="butt" stroke-miterlimit="1.45" shape-rendering="geometricPrecision" text-rendering="geometricPrecision" transform="matrix(1,0,0,1,429,380)"><ellipse cx="-282.373" cy="206.798" fill="none" rx="40.955" ry="15"/></g></a></g><g id="y.node.12" onmousemove="ShowTooltip(evt)" onmouseout="HideTooltip(evt)"><a xlink:href="https://archive.fosdem.org/2014/schedule/event/syscall/"><g fill="#FF9" stroke="#FF9" shape-rendering="geometricPrecision" text-rendering="geometricPrecision" transform="matrix(1,0,0,1,429,380)"><ellipse cx="-305.128" cy="-171.455" stroke="none" rx="52.196" ry="15"/></g><g><g stroke-linecap="butt" stroke-miterlimit="1.45" font-family="'DejaVu Sans'" font-weight="bold" shape-rendering="geometricPrecision" text-rendering="geometricPrecision"><text x="-350.324" y="-167.301" stroke="none" transform="matrix(1,0,0,1,429,380)" xml:space="preserve">Fosdem 2012</text></g></g><g stroke-linecap="butt" stroke-miterlimit="1.45" shape-rendering="geometricPrecision" text-rendering="geometricPrecision" transform="matrix(1,0,0,1,429,380)"><ellipse cx="-305.128" cy="-171.455" fill="none" rx="52.196" ry="15"/></g></a></g><g id="y.node.13" onmousemove="ShowTooltip(evt)" onmouseout="HideTooltip(evt)"><g fill="#FF9" stroke="#FF9" shape-rendering="geometricPrecision" text-rendering="geometricPrecision" transform="matrix(1,0,0,1,429,380)"><ellipse cx="-349.719" cy="14.014" stroke="none" rx="63.848" ry="15"/></g><g><g stroke-linecap="butt" stroke-miterlimit="1.45" font-family="'DejaVu Sans'" font-weight="bold" shape-rendering="geometricPrecision" text-rendering="geometricPrecision"><text x="-406.567" y="18.168" stroke="none" transform="matrix(1,0,0,1,429,380)" xml:space="preserve">many web pages</text></g></g><g stroke-linecap="butt" stroke-miterlimit="1.45" shape-rendering="geometricPrecision" text-rendering="geometricPrecision" transform="matrix(1,0,0,1,429,380)"><ellipse cx="-349.719" cy="14.014" fill="none" rx="63.848" ry="15"/></g></g><g id="y.node.14"><g><g stroke-linecap="butt" stroke-miterlimit="1.45" font-family="'DejaVu Sans'" font-weight="bold" shape-rendering="geometricPrecision" text-rendering="geometricPrecision"><text x="-119.413" y="126.295" stroke="none" transform="matrix(1,0,0,1,429,380)" xml:space="preserve">is used in</text></g></g><g stroke-linecap="butt" stroke-miterlimit="1.45" shape-rendering="geometricPrecision" text-rendering="geometricPrecision" transform="matrix(1,0,0,1,429,380)"><rect width="78.682" height="30" x="-126.413" y="107.141" fill="none"/></g></g><g id="y.edge.1"><g stroke-linecap="butt" stroke-miterlimit="1.45" shape-rendering="geometricPrecision" text-rendering="geometricPrecision"><path fill="none" d="M16.9002 -10.9646 L96.0049 -62.2867" transform="matrix(1,0,0,1,429,380)"/></g><g stroke-linecap="butt" stroke-miterlimit="1.45" shape-rendering="geometricPrecision" text-rendering="geometricPrecision"><path stroke="none" d="M102.7162 -66.6409 L89.9279 -64.3041 L95.166 -61.7424 L95.3707 -55.915 Z" transform="matrix(1,0,0,1,429,380)"/></g></g><g id="y.edge.9"><g stroke-linecap="butt" stroke-miterlimit="1.45" shape-rendering="geometricPrecision" text-rendering="geometricPrecision"><path fill="none" d="M167.055 -87.1366 L264.4137 -100.1176" transform="matrix(1,0,0,1,429,380)"/><path stroke="none" d="M272.3435 -101.1749 L259.788 -104.5451 L263.4225 -99.9854 L261.1096 -94.6328 Z" transform="matrix(1,0,0,1,429,380)"/></g></g><g id="y.edge.10"><g stroke-linecap="butt" stroke-miterlimit="1.45" shape-rendering="geometricPrecision" text-rendering="geometricPrecision"><path fill="none" d="M131.3209 -96.6409 L192.7037 -264.5174" transform="matrix(1,0,0,1,429,380)"/><path stroke="none" d="M195.4509 -272.0309 L186.6341 -262.4776 L192.3602 -263.5782 L196.026 -259.0436 Z" transform="matrix(1,0,0,1,429,380)"/></g></g><g id="y.edge.2"><g stroke-linecap="butt" stroke-miterlimit="1.45" shape-rendering="geometricPrecision" text-rendering="geometricPrecision"><path fill="none" d="M-12.6366 -12.9004 L-84.6733 -86.441" transform="matrix(1,0,0,1,429,380)"/><path stroke="none" d="M-90.2715 -92.156 L-85.4462 -80.0847 L-83.9736 -85.7266 L-78.3024 -87.0823 Z" transform="matrix(1,0,0,1,429,380)"/></g></g><g id="y.edge.0"><g stroke-linecap="butt" stroke-miterlimit="1.45" shape-rendering="geometricPrecision" text-rendering="geometricPrecision"><path fill="none" d="M12.206 13.0516 L82.9649 88.7128" transform="matrix(1,0,0,1,429,380)"/><path stroke="none" d="M88.4293 94.5558 L83.8846 82.3761 L82.2819 87.9824 L76.5809 89.2066 Z" transform="matrix(1,0,0,1,429,380)"/></g></g><g id="y.edge.8"><g stroke-linecap="butt" stroke-miterlimit="1.45" shape-rendering="geometricPrecision" text-rendering="geometricPrecision"><path fill="none" d="M152.4448 120.2416 L269.5548 145.2764" transform="matrix(1,0,0,1,429,380)"/><path stroke="none" d="M277.378 146.9488 L266.6884 139.5507 L268.5769 145.0674 L264.5979 149.3298 Z" transform="matrix(1,0,0,1,429,380)"/></g></g><g id="y.edge.7"><g stroke-linecap="butt" stroke-miterlimit="1.45" shape-rendering="geometricPrecision" text-rendering="geometricPrecision"><path fill="none" d="M103.9109 124.5558 L121.3486 304.5132" transform="matrix(1,0,0,1,429,380)"/><path stroke="none" d="M122.1202 312.4759 L125.9396 300.0496 L121.2522 303.5178 L115.9862 301.014 Z" transform="matrix(1,0,0,1,429,380)"/></g></g><g id="y.edge.3"><g stroke-linecap="butt" stroke-miterlimit="1.45" shape-rendering="geometricPrecision" text-rendering="geometricPrecision"><path fill="none" d="M-97.9432 -122.156 L-1.7235 -327.7098" transform="matrix(1,0,0,1,429,380)"/><path stroke="none" d="M1.6681 -334.9553 L-7.9478 -326.2068 L-2.1475 -326.8041 L1.1091 -321.9673 Z" transform="matrix(1,0,0,1,429,380)"/></g></g><g id="y.edge.4"><g stroke-linecap="butt" stroke-miterlimit="1.45" shape-rendering="geometricPrecision" text-rendering="geometricPrecision"><path fill="none" d="M-111.1147 -122.156 L-174.1477 -275.8945" transform="matrix(1,0,0,1,429,380)"/><path stroke="none" d="M-177.1825 -283.2965 L-177.2565 -270.2968 L-173.7683 -274.9693 L-168.004 -274.0903 Z" transform="matrix(1,0,0,1,429,380)"/></g></g><g id="y.edge.5"><g stroke-linecap="butt" stroke-miterlimit="1.45" shape-rendering="geometricPrecision" text-rendering="geometricPrecision"><path fill="none" d="M-151.6596 -122.156 L-262.71 -157.8292" transform="matrix(1,0,0,1,429,380)"/><path stroke="none" d="M-270.3267 -160.2759 L-260.4309 -151.8454 L-261.7579 -157.5233 L-257.3725 -161.3662 Z" transform="matrix(1,0,0,1,429,380)"/></g></g><g id="y.edge.6"><g stroke-linecap="butt" stroke-miterlimit="1.45" shape-rendering="geometricPrecision" text-rendering="geometricPrecision"><path fill="none" d="M-135.2637 -92.156 L-315.1767 -3.0871" transform="matrix(1,0,0,1,429,380)"/><path stroke="none" d="M-322.3462 0.4623 L-309.3736 -0.3808 L-314.2805 -3.5307 L-313.8103 -9.3427 Z" transform="matrix(1,0,0,1,429,380)"/></g></g><g id="y.edge.12"><g stroke-linecap="butt" stroke-miterlimit="1.45" shape-rendering="geometricPrecision" text-rendering="geometricPrecision"><path fill="none" d="M-9.8172 13.7711 L-71.7351 100.6269" transform="matrix(1,0,0,1,429,380)"/><path stroke="none" d="M-76.379 107.141 L-65.3418 100.2722 L-71.1546 99.8126 L-73.4845 94.4674 Z" transform="matrix(1,0,0,1,429,380)"/></g></g><g id="y.edge.11"><g stroke-linecap="butt" stroke-miterlimit="1.45" shape-rendering="geometricPrecision" text-rendering="geometricPrecision"><path fill="none" d="M-121.6767 137.141 L-248.6006 192.1587" transform="matrix(1,0,0,1,429,380)"/><path stroke="none" d="M-255.9406 195.3404 L-242.9419 195.1554 L-247.683 191.761 L-246.9191 185.9803 Z" transform="matrix(1,0,0,1,429,380)"/></g></g><g id="y.edge.13"><g stroke-linecap="butt" stroke-miterlimit="1.45" shape-rendering="geometricPrecision" text-rendering="geometricPrecision"><path fill="none" d="M-88.7005 137.141 L-107.3957 309.3578" transform="matrix(1,0,0,1,429,380)"/><path stroke="none" d="M-108.2591 317.3111 L-101.9932 305.9208 L-107.2878 308.3636 L-111.9348 304.8416 Z" transform="matrix(1,0,0,1,429,380)"/></g></g><g id="tooltip.y.node.1" pointer-events="none" visibility="hidden"><g fill="#C3D4E8" stroke="#C3D4E8" font-family="sans-serif" shape-rendering="geometricPrecision" text-rendering="geometricPrecision"><rect width="590" height="17" x="0" y="0" stroke="none" clip-path="url(#clipPath3)"/><text x="4" y="13" fill="#000" stroke="none" clip-path="url(#clipPath3)" xml:space="preserve">Gogo uses CARE to reproduce -- bit accurately -- the build of an embedded Linux distribution.</text></g><g fill="#316AC4" stroke="#316AC4" font-family="sans-serif" shape-rendering="geometricPrecision" text-rendering="geometricPrecision"><path fill-rule="evenodd" stroke="none" d="M0 0 L590 0 L590 17 L0 17 L0 0 ZM1 1 L589 1 L589 16 L1 16 L1 1 Z" clip-path="url(#clipPath3)"/></g></g><g id="tooltip.y.node.2" pointer-events="none" visibility="hidden"><g fill="#C3D4E8" stroke="#C3D4E8" font-family="sans-serif" shape-rendering="geometricPrecision" text-rendering="geometricPrecision"><rect width="297" height="17" x="0" y="0" stroke="none" clip-path="url(#clipPath4)"/><text x="4" y="13" fill="#000" stroke="none" clip-path="url(#clipPath4)" xml:space="preserve">Copyright holder and unique sponsor of CARE.</text></g><g fill="#316AC4" stroke="#316AC4" font-family="sans-serif" shape-rendering="geometricPrecision" text-rendering="geometricPrecision"><path fill-rule="evenodd" stroke="none" d="M0 0 L297 0 L297 17 L0 17 L0 0 ZM1 1 L296 1 L296 16 L1 16 L1 1 Z" clip-path="url(#clipPath4)"/></g></g><g id="tooltip.y.node.5" pointer-events="none" visibility="hidden"><g fill="#C3D4E8" stroke="#C3D4E8" font-family="sans-serif" shape-rendering="geometricPrecision" text-rendering="geometricPrecision"><rect width="564" height="17" x="0" y="0" stroke="none" clip-path="url(#clipPath5)"/><text x="4" y="13" fill="#000" stroke="none" clip-path="url(#clipPath5)" xml:space="preserve">Linaro LAVA uses CARE to boot some ST boards and to archives failures during validation</text></g><g fill="#316AC4" stroke="#316AC4" font-family="sans-serif" shape-rendering="geometricPrecision" text-rendering="geometricPrecision"><path fill-rule="evenodd" stroke="none" d="M0 0 L564 0 L564 17 L0 17 L0 0 ZM1 1 L563 1 L563 16 L1 16 L1 1 Z" clip-path="url(#clipPath5)"/></g></g><g id="tooltip.y.node.12" pointer-events="none" visibility="hidden"><g fill="#C3D4E8" stroke="#C3D4E8" font-family="sans-serif" shape-rendering="geometricPrecision" text-rendering="geometricPrecision"><rect width="92" height="17" x="0" y="0" stroke="none" clip-path="url(#clipPath6)"/><text x="4" y="13" fill="#000" stroke="none" clip-path="url(#clipPath6)" xml:space="preserve">Lightning talk</text></g><g fill="#316AC4" stroke="#316AC4" font-family="sans-serif" shape-rendering="geometricPrecision" text-rendering="geometricPrecision"><path fill-rule="evenodd" stroke="none" d="M0 0 L92 0 L92 17 L0 17 L0 0 ZM1 1 L91 1 L91 16 L1 16 L1 1 Z" clip-path="url(#clipPath6)"/></g></g><g id="tooltip.y.node.13" pointer-events="none" visibility="hidden"><g fill="#C3D4E8" stroke="#C3D4E8" font-family="sans-serif" shape-rendering="geometricPrecision" text-rendering="geometricPrecision"><rect width="469" height="17" x="0" y="0" stroke="none" clip-path="url(#clipPath7)"/><text x="4" y="13" fill="#000" stroke="none" clip-path="url(#clipPath7)" xml:space="preserve">About 100 domains references https://proot-me.github.io according to Google</text></g><g fill="#316AC4" stroke="#316AC4" font-family="sans-serif" shape-rendering="geometricPrecision" text-rendering="geometricPrecision"><path fill-rule="evenodd" stroke="none" d="M0 0 L469 0 L469 17 L0 17 L0 0 ZM1 1 L468 1 L468 16 L1 16 L1 1 Z" clip-path="url(#clipPath7)"/></g></g></g></svg>