<svg xmlns="http://www.w3.org/2000/svg" xmlns:xlink="http://www.w3.org/1999/xlink" width="985" height="906" fill="#000" fill-opacity="1" stroke="#000" stroke-dasharray="none" stroke-dashoffset="0" stroke-linecap="square" stroke-linejoin="miter" stroke-miterlimit="10" stroke-opacity="1" stroke-width="1" color-interpolation="auto" color-rendering="auto" font-family="'Dialog'" font-size="12" font-style="normal" font-weight="normal" image-rendering="auto" shape-rendering="auto" text-rendering="auto"><g><defs id="defs1"><clipPath id="clipPath1" clipPathUnits="userSpaceOnUse"><path d="M0 0 L985 0 L985 906 L0 906 L0 0 Z"/></clipPath><clipPath id="clipPath2" clipPathUnits="userSpaceOnUse"><path d="M-496 -453 L489 -453 L489 453 L-496 453 L-496 -453 Z"/></clipPath><clipPath id="clipPath3" clipPathUnits="userSpaceOnUse"><path d="M0 0 L0 17 L302 17 L302 0 Z"/></clipPath><clipPath id="clipPath4" clipPathUnits="userSpaceOnUse"><path d="M0 0 L0 17 L92 17 L92 0 Z"/></clipPath><clipPath id="clipPath5" clipPathUnits="userSpaceOnUse"><path d="M0 0 L0 17 L659 17 L659 0 Z"/></clipPath><clipPath id="clipPath6" clipPathUnits="userSpaceOnUse"><path d="M0 0 L0 17 L432 17 L432 0 Z"/></clipPath><clipPath id="clipPath7" clipPathUnits="userSpaceOnUse"><path d="M0 0 L0 17 L496 17 L496 0 Z"/></clipPath><clipPath id="clipPath8" clipPathUnits="userSpaceOnUse"><path d="M0 0 L0 17 L403 17 L403 0 Z"/></clipPath><clipPath id="clipPath9" clipPathUnits="userSpaceOnUse"><path d="M0 0 L0 17 L450 17 L450 0 Z"/></clipPath><script type="text/ecmascript"><![CDATA[      var SVGDocument = null;
      var SVGRoot = null;
      var TrueCoords = null;
      var lastElement = null;
      var initialized = null;
      var tipGroup;
      function Init(evt)
      {
         SVGDocument = evt.target.ownerDocument;
         SVGRoot = SVGDocument.documentElement;
         TrueCoords = SVGRoot.createSVGPoint();
         initialized = evt;
      };
      function GetTrueCoords(evt)
      {
         var newScale = SVGRoot.currentScale;
         var translation = SVGRoot.currentTranslate;
         TrueCoords.x = (evt.clientX - translation.x)/newScale;
         TrueCoords.y = (evt.clientY - translation.y)/newScale;
      };
      function HideTooltip( evt )
      {
         if(initialized == null) {
           Init(evt);
         }
         if(tipGroup != null) {
           tipGroup.setAttributeNS(null, 'visibility', 'hidden');
         }
      };
      function ShowTooltip( evt )
      {
         if(initialized == null) {
           Init(evt);
         }
         GetTrueCoords( evt );
         var tipScale = 1/SVGRoot.currentScale;
         var targetElement = evt.currentTarget;
         if ( lastElement != targetElement )
         {
            var targetId = targetElement.getAttributeNS(null, 'id');
            var tipId = 'tooltip.' + targetId;
            tipGroup = SVGDocument.getElementById(tipId);
            var xPos = TrueCoords.x + (10 * tipScale);
            var yPos = TrueCoords.y + (10 * tipScale);
            tipGroup.setAttributeNS(null, 'transform', 'translate(' + xPos + ',' + yPos + ') scale(' + tipScale + ')');
            tipGroup.setAttributeNS(null, 'visibility', 'visible');
         }
      };
]]></script></defs><g fill="#fff" stroke="#fff" shape-rendering="geometricPrecision" text-rendering="geometricPrecision" transform="translate(496,453)"><rect width="985" height="906" x="-496" y="-453" stroke="none" clip-path="url(#clipPath2)"/></g><g id="y.node.0"><a target="_blank" xlink:href="http://proot.me" xlink:show="new" xlink:type="simple"><g fill="#F90" stroke="#F90" shape-rendering="geometricPrecision" text-rendering="geometricPrecision" transform="matrix(1,0,0,1,496,453)"><ellipse cx="0" cy="0" stroke="none" rx="27.13" ry="15"/></g><g><g stroke-linecap="butt" stroke-miterlimit="1.45" font-family="'DejaVu Sans'" font-weight="bold" shape-rendering="geometricPrecision" text-rendering="geometricPrecision"><text x="-20.13" y="4.154" stroke="none" transform="matrix(1,0,0,1,496,453)" xml:space="preserve">PRoot</text></g></g><g stroke-linecap="butt" stroke-miterlimit="1.45" shape-rendering="geometricPrecision" text-rendering="geometricPrecision" transform="matrix(1,0,0,1,496,453)"><ellipse cx="0" cy="0" fill="none" rx="27.13" ry="15"/></g></a></g><g id="y.node.1"><a target="_blank" xlink:href="https://github.com/ev3dev/brickstrap" xlink:show="new" xlink:type="simple"><g fill="#CFC" stroke="#CFC" shape-rendering="geometricPrecision" text-rendering="geometricPrecision" transform="matrix(1,0,0,1,496,453)"><ellipse cx="51.317" cy="421.89" stroke="none" rx="42.628" ry="15"/></g><g><g stroke-linecap="butt" stroke-miterlimit="1.45" font-family="'DejaVu Sans'" font-weight="bold" shape-rendering="geometricPrecision" text-rendering="geometricPrecision"><text x="15.689" y="426.045" stroke="none" transform="matrix(1,0,0,1,496,453)" xml:space="preserve">BrickStrap</text></g></g><g stroke-linecap="butt" stroke-miterlimit="1.45" shape-rendering="geometricPrecision" text-rendering="geometricPrecision" transform="matrix(1,0,0,1,496,453)"><ellipse cx="51.317" cy="421.89" fill="none" rx="42.628" ry="15"/></g></a></g><g id="y.node.2"><a target="_blank" xlink:href="https://packages.debian.org/sid/proot" xlink:show="new" xlink:type="simple"><g fill="#CCF" stroke="#CCF" shape-rendering="geometricPrecision" text-rendering="geometricPrecision" transform="matrix(1,0,0,1,496,453)"><ellipse cx="385.402" cy="-179.137" stroke="none" rx="30.722" ry="15"/></g><g><g stroke-linecap="butt" stroke-miterlimit="1.45" font-family="'DejaVu Sans'" font-weight="bold" shape-rendering="geometricPrecision" text-rendering="geometricPrecision"><text x="361.681" y="-174.983" stroke="none" transform="matrix(1,0,0,1,496,453)" xml:space="preserve">Debian</text></g></g><g stroke-linecap="butt" stroke-miterlimit="1.45" shape-rendering="geometricPrecision" text-rendering="geometricPrecision" transform="matrix(1,0,0,1,496,453)"><ellipse cx="385.402" cy="-179.137" fill="none" rx="30.722" ry="15"/></g></a></g><g id="y.node.3"><a target="_blank" xlink:href="https://github.com/squeaky-pl/portable-pypy" xlink:show="new" xlink:type="simple"><g fill="#CFC" stroke="#CFC" shape-rendering="geometricPrecision" text-rendering="geometricPrecision" transform="matrix(1,0,0,1,496,453)"><ellipse cx="161.43" cy="393.148" stroke="none" rx="54.42" ry="15"/></g><g><g stroke-linecap="butt" stroke-miterlimit="1.45" font-family="'DejaVu Sans'" font-weight="bold" shape-rendering="geometricPrecision" text-rendering="geometricPrecision"><text x="114.01" y="397.303" stroke="none" transform="matrix(1,0,0,1,496,453)" xml:space="preserve">Portable Pypy</text></g></g><g stroke-linecap="butt" stroke-miterlimit="1.45" shape-rendering="geometricPrecision" text-rendering="geometricPrecision" transform="matrix(1,0,0,1,496,453)"><ellipse cx="161.43" cy="393.148" fill="none" rx="54.42" ry="15"/></g></a></g><g id="y.node.4"><a target="_blank" xlink:href="https://play.google.com/store/apps/details?id=champion.gnuroot" xlink:show="new" xlink:type="simple"><g fill="#FCC" stroke="#FCC" shape-rendering="geometricPrecision" text-rendering="geometricPrecision" transform="matrix(1,0,0,1,496,453)"><ellipse cx="-413.355" cy="98.805" stroke="none" rx="37.551" ry="15"/></g><g><g stroke-linecap="butt" stroke-miterlimit="1.45" font-family="'DejaVu Sans'" font-weight="bold" shape-rendering="geometricPrecision" text-rendering="geometricPrecision"><text x="-443.906" y="102.959" stroke="none" transform="matrix(1,0,0,1,496,453)" xml:space="preserve">GNURoot</text></g></g><g stroke-linecap="butt" stroke-miterlimit="1.45" shape-rendering="geometricPrecision" text-rendering="geometricPrecision" transform="matrix(1,0,0,1,496,453)"><ellipse cx="-413.355" cy="98.805" fill="none" rx="37.551" ry="15"/></g></a></g><g id="y.node.5"><a target="_blank" xlink:href="https://play.google.com/store/apps/details?id=com.cuntubuntu" xlink:show="new" xlink:type="simple"><g fill="#FCC" stroke="#FCC" shape-rendering="geometricPrecision" text-rendering="geometricPrecision" transform="matrix(1,0,0,1,496,453)"><ellipse cx="-424.88" cy="-10.076" stroke="none" rx="55.275" ry="15"/></g><g><g stroke-linecap="butt" stroke-miterlimit="1.45" font-family="'DejaVu Sans'" font-weight="bold" shape-rendering="geometricPrecision" text-rendering="geometricPrecision"><text x="-473.156" y="-5.922" stroke="none" transform="matrix(1,0,0,1,496,453)" xml:space="preserve">Debian noroot</text></g></g><g stroke-linecap="butt" stroke-miterlimit="1.45" shape-rendering="geometricPrecision" text-rendering="geometricPrecision" transform="matrix(1,0,0,1,496,453)"><ellipse cx="-424.88" cy="-10.076" fill="none" rx="55.275" ry="15"/></g></a></g><g id="y.node.6"><g><g stroke-linecap="butt" stroke-miterlimit="1.45" font-family="'DejaVu Sans'" font-weight="bold" shape-rendering="geometricPrecision" text-rendering="geometricPrecision"><text x="-206.74" y="33.415" stroke="none" transform="matrix(1,0,0,1,496,453)" xml:space="preserve">is core for</text></g></g><g stroke-linecap="butt" stroke-miterlimit="1.45" shape-rendering="geometricPrecision" text-rendering="geometricPrecision" transform="matrix(1,0,0,1,496,453)"><rect width="82.408" height="30" x="-213.74" y="14.261" fill="none"/></g></g><g id="y.node.7"><g><g stroke-linecap="butt" stroke-miterlimit="1.45" font-family="'DejaVu Sans'" font-weight="bold" shape-rendering="geometricPrecision" text-rendering="geometricPrecision"><text x="110.593" y="105.125" stroke="none" transform="matrix(1,0,0,1,496,453)" xml:space="preserve">is used in</text></g></g><g stroke-linecap="butt" stroke-miterlimit="1.45" shape-rendering="geometricPrecision" text-rendering="geometricPrecision" transform="matrix(1,0,0,1,496,453)"><rect width="78.682" height="30" x="103.593" y="85.97" fill="none"/></g></g><g id="y.node.8"><g><g stroke-linecap="butt" stroke-miterlimit="1.45" font-family="'DejaVu Sans'" font-weight="bold" shape-rendering="geometricPrecision" text-rendering="geometricPrecision"><text x="61.241" y="-136.421" stroke="none" transform="matrix(1,0,0,1,496,453)" xml:space="preserve">is shipped in</text></g></g><g stroke-linecap="butt" stroke-miterlimit="1.45" shape-rendering="geometricPrecision" text-rendering="geometricPrecision" transform="matrix(1,0,0,1,496,453)"><rect width="99.975" height="30" x="54.241" y="-155.575" fill="none"/></g></g><g id="y.node.9"><g><g stroke-linecap="butt" stroke-miterlimit="1.45" font-family="'DejaVu Sans'" font-weight="bold" shape-rendering="geometricPrecision" text-rendering="geometricPrecision"><text x="-160.694" y="-132.352" stroke="none" transform="matrix(1,0,0,1,496,453)" xml:space="preserve">is presented at</text></g></g><g stroke-linecap="butt" stroke-miterlimit="1.45" shape-rendering="geometricPrecision" text-rendering="geometricPrecision" transform="matrix(1,0,0,1,496,453)"><rect width="116.381" height="30" x="-167.694" y="-151.507" fill="none"/></g></g><g id="y.node.10" onmousemove="ShowTooltip(evt)" onmouseout="HideTooltip(evt)"><g fill="#9FF" stroke="#9FF" shape-rendering="geometricPrecision" text-rendering="geometricPrecision" transform="matrix(1,0,0,1,496,453)"><ellipse cx="-279.267" cy="320.367" stroke="none" rx="71.236" ry="15"/></g><g><g stroke-linecap="butt" stroke-miterlimit="1.45" font-family="'DejaVu Sans'" font-weight="bold" shape-rendering="geometricPrecision" text-rendering="geometricPrecision"><text x="-343.503" y="324.521" stroke="none" transform="matrix(1,0,0,1,496,453)" xml:space="preserve">STMicroelectronics</text></g></g><g stroke-linecap="butt" stroke-miterlimit="1.45" shape-rendering="geometricPrecision" text-rendering="geometricPrecision" transform="matrix(1,0,0,1,496,453)"><ellipse cx="-279.267" cy="320.367" fill="none" rx="71.236" ry="15"/></g></g><g id="y.node.11" onmousemove="ShowTooltip(evt)" onmouseout="HideTooltip(evt)"><a target="_blank" xlink:href="https://archive.fosdem.org/2014/schedule/event/syscall/" xlink:show="new" xlink:type="simple"><g fill="#FF9" stroke="#FF9" shape-rendering="geometricPrecision" text-rendering="geometricPrecision" transform="matrix(1,0,0,1,496,453)"><ellipse cx="-41.363" cy="-422.982" stroke="none" rx="52.196" ry="15"/></g><g><g stroke-linecap="butt" stroke-miterlimit="1.45" font-family="'DejaVu Sans'" font-weight="bold" shape-rendering="geometricPrecision" text-rendering="geometricPrecision"><text x="-86.559" y="-418.828" stroke="none" transform="matrix(1,0,0,1,496,453)" xml:space="preserve">Fosdem 2012</text></g></g><g stroke-linecap="butt" stroke-miterlimit="1.45" shape-rendering="geometricPrecision" text-rendering="geometricPrecision" transform="matrix(1,0,0,1,496,453)"><ellipse cx="-41.363" cy="-422.982" fill="none" rx="52.196" ry="15"/></g></a></g><g id="y.node.12"><a target="_blank" xlink:href="https://proot-me.github.io" xlink:show="new" xlink:type="simple"><g fill="#FCC" stroke="#FCC" shape-rendering="geometricPrecision" text-rendering="geometricPrecision" transform="matrix(1,0,0,1,496,453)"><ellipse cx="-386.958" cy="175.752" stroke="none" rx="24.766" ry="15"/></g><g><g stroke-linecap="butt" stroke-miterlimit="1.45" font-family="'DejaVu Sans'" font-weight="bold" shape-rendering="geometricPrecision" text-rendering="geometricPrecision"><text x="-404.724" y="179.906" stroke="none" transform="matrix(1,0,0,1,496,453)" xml:space="preserve">CARE</text></g></g><g stroke-linecap="butt" stroke-miterlimit="1.45" shape-rendering="geometricPrecision" text-rendering="geometricPrecision" transform="matrix(1,0,0,1,496,453)"><ellipse cx="-386.958" cy="175.752" fill="none" rx="24.766" ry="15"/></g></a></g><g id="y.node.13"><a target="_blank" xlink:href="http://packages.gentoo.org/package/sys-apps/proot" xlink:show="new" xlink:type="simple"><g fill="#CCF" stroke="#CCF" shape-rendering="geometricPrecision" text-rendering="geometricPrecision" transform="matrix(1,0,0,1,496,453)"><ellipse cx="275.209" cy="-323.859" stroke="none" rx="31.378" ry="15"/></g><g><g stroke-linecap="butt" stroke-miterlimit="1.45" font-family="'DejaVu Sans'" font-weight="bold" shape-rendering="geometricPrecision" text-rendering="geometricPrecision"><text x="250.831" y="-319.705" stroke="none" transform="matrix(1,0,0,1,496,453)" xml:space="preserve">Gentoo</text></g></g><g stroke-linecap="butt" stroke-miterlimit="1.45" shape-rendering="geometricPrecision" text-rendering="geometricPrecision" transform="matrix(1,0,0,1,496,453)"><ellipse cx="275.209" cy="-323.859" fill="none" rx="31.378" ry="15"/></g></a></g><g id="y.node.14"><a target="_blank" xlink:href="https://aur.archlinux.org/packages/proot/" xlink:show="new" xlink:type="simple"><g fill="#CCF" stroke="#CCF" shape-rendering="geometricPrecision" text-rendering="geometricPrecision" transform="matrix(1,0,0,1,496,453)"><ellipse cx="338.318" cy="-257.228" stroke="none" rx="42.813" ry="15"/></g><g><g stroke-linecap="butt" stroke-miterlimit="1.45" font-family="'DejaVu Sans'" font-weight="bold" shape-rendering="geometricPrecision" text-rendering="geometricPrecision"><text x="302.505" y="-253.073" stroke="none" transform="matrix(1,0,0,1,496,453)" xml:space="preserve">Arch Linux</text></g></g><g stroke-linecap="butt" stroke-miterlimit="1.45" shape-rendering="geometricPrecision" text-rendering="geometricPrecision" transform="matrix(1,0,0,1,496,453)"><ellipse cx="338.318" cy="-257.228" fill="none" rx="42.813" ry="15"/></g></a></g><g id="y.node.15"><a target="_blank" xlink:href="https://launchpad.net/ubuntu/+source/proot" xlink:show="new" xlink:type="simple"><g fill="#CCF" stroke="#CCF" shape-rendering="geometricPrecision" text-rendering="geometricPrecision" transform="matrix(1,0,0,1,496,453)"><ellipse cx="60.441" cy="-420.68" stroke="none" rx="31.85" ry="15"/></g><g><g stroke-linecap="butt" stroke-miterlimit="1.45" font-family="'DejaVu Sans'" font-weight="bold" shape-rendering="geometricPrecision" text-rendering="geometricPrecision"><text x="35.592" y="-416.526" stroke="none" transform="matrix(1,0,0,1,496,453)" xml:space="preserve">Ubuntu</text></g></g><g stroke-linecap="butt" stroke-miterlimit="1.45" shape-rendering="geometricPrecision" text-rendering="geometricPrecision" transform="matrix(1,0,0,1,496,453)"><ellipse cx="60.441" cy="-420.68" fill="none" rx="31.85" ry="15"/></g></a></g><g id="y.node.16"><a target="_blank" xlink:href="http://gfxmonk.net/dist/0install/proot.xml" xlink:show="new" xlink:type="simple"><g fill="#CCF" stroke="#CCF" shape-rendering="geometricPrecision" text-rendering="geometricPrecision" transform="matrix(1,0,0,1,496,453)"><ellipse cx="140.41" cy="-401.136" stroke="none" rx="32.105" ry="15"/></g><g><g stroke-linecap="butt" stroke-miterlimit="1.45" font-family="'DejaVu Sans'" font-weight="bold" shape-rendering="geometricPrecision" text-rendering="geometricPrecision"><text x="115.305" y="-396.982" stroke="none" transform="matrix(1,0,0,1,496,453)" xml:space="preserve">0install</text></g></g><g stroke-linecap="butt" stroke-miterlimit="1.45" shape-rendering="geometricPrecision" text-rendering="geometricPrecision" transform="matrix(1,0,0,1,496,453)"><ellipse cx="140.41" cy="-401.136" fill="none" rx="32.105" ry="15"/></g></a></g><g id="y.node.17"><a target="_blank" xlink:href="https://github.com/NixOS/nixpkgs/tree/master/pkgs/tools/system/proot" xlink:show="new" xlink:type="simple"><g fill="#CCF" stroke="#CCF" shape-rendering="geometricPrecision" text-rendering="geometricPrecision" transform="matrix(1,0,0,1,496,453)"><ellipse cx="211.656" cy="-368.547" stroke="none" rx="27.37" ry="15"/></g><g><g stroke-linecap="butt" stroke-miterlimit="1.45" font-family="'DejaVu Sans'" font-weight="bold" shape-rendering="geometricPrecision" text-rendering="geometricPrecision"><text x="191.286" y="-364.393" stroke="none" transform="matrix(1,0,0,1,496,453)" xml:space="preserve">NixOS</text></g></g><g stroke-linecap="butt" stroke-miterlimit="1.45" shape-rendering="geometricPrecision" text-rendering="geometricPrecision" transform="matrix(1,0,0,1,496,453)"><ellipse cx="211.656" cy="-368.547" fill="none" rx="27.37" ry="15"/></g></a></g><g id="y.node.18"><a target="_blank" xlink:href="https://nixos.org/wiki/How_to_install_nix_in_home_%28on_another_distribution%29" xlink:show="new" xlink:type="simple"><g fill="#CFC" stroke="#CFC" shape-rendering="geometricPrecision" text-rendering="geometricPrecision" transform="matrix(1,0,0,1,496,453)"><ellipse cx="411.512" cy="-106.222" stroke="none" rx="27.37" ry="15"/></g><g><g stroke-linecap="butt" stroke-miterlimit="1.45" font-family="'DejaVu Sans'" font-weight="bold" shape-rendering="geometricPrecision" text-rendering="geometricPrecision"><text x="391.142" y="-102.067" stroke="none" transform="matrix(1,0,0,1,496,453)" xml:space="preserve">NixOS</text></g></g><g stroke-linecap="butt" stroke-miterlimit="1.45" shape-rendering="geometricPrecision" text-rendering="geometricPrecision" transform="matrix(1,0,0,1,496,453)"><ellipse cx="411.512" cy="-106.222" fill="none" rx="27.37" ry="15"/></g></a></g><g id="y.node.19"><a target="_blank" xlink:href="https://aur.archlinux.org/packages/xampp/" xlink:show="new" xlink:type="simple"><g fill="#CFC" stroke="#CFC" shape-rendering="geometricPrecision" text-rendering="geometricPrecision" transform="matrix(1,0,0,1,496,453)"><ellipse cx="262.476" cy="334.262" stroke="none" rx="45.985" ry="15"/></g><g><g stroke-linecap="butt" stroke-miterlimit="1.45" font-family="'DejaVu Sans'" font-weight="bold" shape-rendering="geometricPrecision" text-rendering="geometricPrecision"><text x="223.49" y="338.417" stroke="none" transform="matrix(1,0,0,1,496,453)" xml:space="preserve">xampp AUR</text></g></g><g stroke-linecap="butt" stroke-miterlimit="1.45" shape-rendering="geometricPrecision" text-rendering="geometricPrecision" transform="matrix(1,0,0,1,496,453)"><ellipse cx="262.476" cy="334.262" fill="none" rx="45.985" ry="15"/></g></a></g><g id="y.node.20"><a target="_blank" xlink:href="https://aur.archlinux.org/packages/hammerwatch/" xlink:show="new" xlink:type="simple"><g fill="#CFC" stroke="#CFC" shape-rendering="geometricPrecision" text-rendering="geometricPrecision" transform="matrix(1,0,0,1,496,453)"><ellipse cx="353.079" cy="236.559" stroke="none" rx="71.365" ry="15"/></g><g><g stroke-linecap="butt" stroke-miterlimit="1.45" font-family="'DejaVu Sans'" font-weight="bold" shape-rendering="geometricPrecision" text-rendering="geometricPrecision"><text x="288.714" y="240.713" stroke="none" transform="matrix(1,0,0,1,496,453)" xml:space="preserve">hammerwatch AUR</text></g></g><g stroke-linecap="butt" stroke-miterlimit="1.45" shape-rendering="geometricPrecision" text-rendering="geometricPrecision" transform="matrix(1,0,0,1,496,453)"><ellipse cx="353.079" cy="236.559" fill="none" rx="71.365" ry="15"/></g></a></g><g id="y.node.21" onmousemove="ShowTooltip(evt)" onmouseout="HideTooltip(evt)"><g fill="#9FF" stroke="#9FF" shape-rendering="geometricPrecision" text-rendering="geometricPrecision" transform="matrix(1,0,0,1,496,453)"><ellipse cx="-185.619" cy="382.323" stroke="none" rx="23.488" ry="15"/></g><g><g stroke-linecap="butt" stroke-miterlimit="1.45" font-family="'DejaVu Sans'" font-weight="bold" shape-rendering="geometricPrecision" text-rendering="geometricPrecision"><text x="-202.107" y="386.477" stroke="none" transform="matrix(1,0,0,1,496,453)" xml:space="preserve">Enea</text></g></g><g stroke-linecap="butt" stroke-miterlimit="1.45" shape-rendering="geometricPrecision" text-rendering="geometricPrecision" transform="matrix(1,0,0,1,496,453)"><ellipse cx="-185.619" cy="382.323" fill="none" rx="23.488" ry="15"/></g></g><g id="y.node.22"><a target="_blank" xlink:href="https://forge.ocamlcore.org/projects/opam2debian" xlink:show="new" xlink:type="simple"><g fill="#CFC" stroke="#CFC" shape-rendering="geometricPrecision" text-rendering="geometricPrecision" transform="matrix(1,0,0,1,496,453)"><ellipse cx="411.243" cy="107.257" stroke="none" rx="55.009" ry="15"/></g><g><g stroke-linecap="butt" stroke-miterlimit="1.45" font-family="'DejaVu Sans'" font-weight="bold" shape-rendering="geometricPrecision" text-rendering="geometricPrecision"><text x="363.234" y="111.412" stroke="none" transform="matrix(1,0,0,1,496,453)" xml:space="preserve">OPAM2Debian</text></g></g><g stroke-linecap="butt" stroke-miterlimit="1.45" shape-rendering="geometricPrecision" text-rendering="geometricPrecision" transform="matrix(1,0,0,1,496,453)"><ellipse cx="411.243" cy="107.257" fill="none" rx="55.009" ry="15"/></g></a></g><g id="y.node.23"><a target="_blank" xlink:href="http://sioworkers.readthedocs.org/en/latest/" xlink:show="new" xlink:type="simple"><g fill="#CFC" stroke="#CFC" shape-rendering="geometricPrecision" text-rendering="geometricPrecision" transform="matrix(1,0,0,1,496,453)"><ellipse cx="424.82" cy="-12.366" stroke="none" rx="49.032" ry="15"/></g><g><g stroke-linecap="butt" stroke-miterlimit="1.45" font-family="'DejaVu Sans'" font-weight="bold" shape-rendering="geometricPrecision" text-rendering="geometricPrecision"><text x="382.788" y="-8.212" stroke="none" transform="matrix(1,0,0,1,496,453)" xml:space="preserve">SIO Workers</text></g></g><g stroke-linecap="butt" stroke-miterlimit="1.45" shape-rendering="geometricPrecision" text-rendering="geometricPrecision" transform="matrix(1,0,0,1,496,453)"><ellipse cx="424.82" cy="-12.366" fill="none" rx="49.032" ry="15"/></g></a></g><g id="y.node.24"><a target="_blank" xlink:href="http://adt.cs.upb.de/quf/" xlink:show="new" xlink:type="simple"><g fill="#FF9" stroke="#FF9" shape-rendering="geometricPrecision" text-rendering="geometricPrecision" transform="matrix(1,0,0,1,496,453)"><ellipse cx="-184.836" cy="-382.702" stroke="none" rx="80.793" ry="15"/></g><g><g stroke-linecap="butt" stroke-miterlimit="1.45" font-family="'DejaVu Sans'" font-weight="bold" shape-rendering="geometricPrecision" text-rendering="geometricPrecision"><text x="-258.629" y="-378.548" stroke="none" transform="matrix(1,0,0,1,496,453)" xml:space="preserve">QEMU workshop 2011</text></g></g><g stroke-linecap="butt" stroke-miterlimit="1.45" shape-rendering="geometricPrecision" text-rendering="geometricPrecision" transform="matrix(1,0,0,1,496,453)"><ellipse cx="-184.836" cy="-382.702" fill="none" rx="80.793" ry="15"/></g></a></g><g id="y.node.25"><a target="_blank" xlink:href="http://www.slideshare.net/linaroorg/lcu14-211-lava-use-cases-sw-testing-reproducing-a-lava-failures-locally-using-care" xlink:show="new" xlink:type="simple"><g fill="#FF9" stroke="#FF9" shape-rendering="geometricPrecision" text-rendering="geometricPrecision" transform="matrix(1,0,0,1,496,453)"><ellipse cx="-321.68" cy="-277.754" stroke="none" rx="76.721" ry="15"/></g><g><g stroke-linecap="butt" stroke-miterlimit="1.45" font-family="'DejaVu Sans'" font-weight="bold" shape-rendering="geometricPrecision" text-rendering="geometricPrecision"><text x="-391.4" y="-273.6" stroke="none" transform="matrix(1,0,0,1,496,453)" xml:space="preserve">Linaro Connect 2014</text></g></g><g stroke-linecap="butt" stroke-miterlimit="1.45" shape-rendering="geometricPrecision" text-rendering="geometricPrecision" transform="matrix(1,0,0,1,496,453)"><ellipse cx="-321.68" cy="-277.754" fill="none" rx="76.721" ry="15"/></g></a></g><g id="y.node.26" onmousemove="ShowTooltip(evt)" onmouseout="HideTooltip(evt)"><g fill="#FF9" stroke="#FF9" shape-rendering="geometricPrecision" text-rendering="geometricPrecision" transform="matrix(1,0,0,1,496,453)"><ellipse cx="-400.291" cy="-142.802" stroke="none" rx="63.848" ry="15"/></g><g><g stroke-linecap="butt" stroke-miterlimit="1.45" font-family="'DejaVu Sans'" font-weight="bold" shape-rendering="geometricPrecision" text-rendering="geometricPrecision"><text x="-457.138" y="-138.647" stroke="none" transform="matrix(1,0,0,1,496,453)" xml:space="preserve">many web pages</text></g></g><g stroke-linecap="butt" stroke-miterlimit="1.45" shape-rendering="geometricPrecision" text-rendering="geometricPrecision" transform="matrix(1,0,0,1,496,453)"><ellipse cx="-400.291" cy="-142.802" fill="none" rx="63.848" ry="15"/></g></g><g id="y.node.27" onmousemove="ShowTooltip(evt)" onmouseout="HideTooltip(evt)"><g fill="#9FF" stroke="#9FF" shape-rendering="geometricPrecision" text-rendering="geometricPrecision" transform="matrix(1,0,0,1,496,453)"><ellipse cx="-353.485" cy="235.952" stroke="none" rx="23.626" ry="15"/></g><g><g stroke-linecap="butt" stroke-miterlimit="1.45" font-family="'DejaVu Sans'" font-weight="bold" shape-rendering="geometricPrecision" text-rendering="geometricPrecision"><text x="-370.111" y="240.106" stroke="none" transform="matrix(1,0,0,1,496,453)" xml:space="preserve">Sony</text></g></g><g stroke-linecap="butt" stroke-miterlimit="1.45" shape-rendering="geometricPrecision" text-rendering="geometricPrecision" transform="matrix(1,0,0,1,496,453)"><ellipse cx="-353.485" cy="235.952" fill="none" rx="23.626" ry="15"/></g></g><g id="y.node.28"><g><g stroke-linecap="butt" stroke-miterlimit="1.45" font-family="'DejaVu Sans'" font-weight="bold" shape-rendering="geometricPrecision" text-rendering="geometricPrecision"><text x="-122.847" y="155.052" stroke="none" transform="matrix(1,0,0,1,496,453)" xml:space="preserve">is used by</text></g></g><g stroke-linecap="butt" stroke-miterlimit="1.45" shape-rendering="geometricPrecision" text-rendering="geometricPrecision" transform="matrix(1,0,0,1,496,453)"><rect width="82.438" height="30" x="-129.847" y="135.897" fill="none"/></g></g><g id="y.node.29" onmousemove="ShowTooltip(evt)" onmouseout="HideTooltip(evt)"><g fill="#9FF" stroke="#9FF" shape-rendering="geometricPrecision" text-rendering="geometricPrecision" transform="matrix(1,0,0,1,496,453)"><ellipse cx="-121.643" cy="407.22" stroke="none" rx="24.71" ry="15"/></g><g><g stroke-linecap="butt" stroke-miterlimit="1.45" font-family="'DejaVu Sans'" font-weight="bold" shape-rendering="geometricPrecision" text-rendering="geometricPrecision"><text x="-139.353" y="411.374" stroke="none" transform="matrix(1,0,0,1,496,453)" xml:space="preserve">Cisco</text></g></g><g stroke-linecap="butt" stroke-miterlimit="1.45" shape-rendering="geometricPrecision" text-rendering="geometricPrecision" transform="matrix(1,0,0,1,496,453)"><ellipse cx="-121.643" cy="407.22" fill="none" rx="24.71" ry="15"/></g></g><g id="y.node.30" onmousemove="ShowTooltip(evt)" onmouseout="HideTooltip(evt)"><g fill="#9FF" stroke="#9FF" shape-rendering="geometricPrecision" text-rendering="geometricPrecision" transform="matrix(1,0,0,1,496,453)"><ellipse cx="-44.164" cy="422.699" stroke="none" rx="35.207" ry="15"/></g><g><g stroke-linecap="butt" stroke-miterlimit="1.45" font-family="'DejaVu Sans'" font-weight="bold" shape-rendering="geometricPrecision" text-rendering="geometricPrecision"><text x="-72.371" y="426.853" stroke="none" transform="matrix(1,0,0,1,496,453)" xml:space="preserve">Ericsson</text></g></g><g stroke-linecap="butt" stroke-miterlimit="1.45" shape-rendering="geometricPrecision" text-rendering="geometricPrecision" transform="matrix(1,0,0,1,496,453)"><ellipse cx="-44.164" cy="422.699" fill="none" rx="35.207" ry="15"/></g></g><g id="y.edge.3"><g stroke-linecap="butt" stroke-miterlimit="1.45" shape-rendering="geometricPrecision" text-rendering="geometricPrecision"><path fill="none" d="M-25.9372 4.3987 L-123.4449 20.9351" transform="matrix(1,0,0,1,496,453)"/></g><g stroke-linecap="butt" stroke-miterlimit="1.45" shape-rendering="geometricPrecision" text-rendering="geometricPrecision"><path stroke="none" d="M-131.3323 22.2727 L-118.6652 25.1959 L-122.459 20.7679 L-120.3373 15.3367 Z" transform="matrix(1,0,0,1,496,453)"/></g></g><g id="y.edge.14"><g stroke-linecap="butt" stroke-miterlimit="1.45" shape-rendering="geometricPrecision" text-rendering="geometricPrecision"><path fill="none" d="M-213.7405 22.8375 L-369.0458 -1.3722" transform="matrix(1,0,0,1,496,453)"/><path stroke="none" d="M-376.9503 -2.6043 L-365.8636 4.1843 L-368.0577 -1.2181 L-364.3234 -5.6964 Z" transform="matrix(1,0,0,1,496,453)"/></g></g><g id="y.edge.15"><g stroke-linecap="butt" stroke-miterlimit="1.45" shape-rendering="geometricPrecision" text-rendering="geometricPrecision"><path fill="none" d="M-213.7405 41.1596 L-375.238 87.7972" transform="matrix(1,0,0,1,496,453)"/><path stroke="none" d="M-382.924 90.0167 L-370.0078 91.4911 L-374.2773 87.5197 L-372.7823 81.8837 Z" transform="matrix(1,0,0,1,496,453)"/></g></g><g id="y.edge.0"><g stroke-linecap="butt" stroke-miterlimit="1.45" shape-rendering="geometricPrecision" text-rendering="geometricPrecision"><path fill="none" d="M16.7213 11.8122 L115.1654 81.3545" transform="matrix(1,0,0,1,496,453)"/><path stroke="none" d="M121.6996 85.9703 L114.7833 74.9628 L114.3487 80.7775 L109.0135 83.1304 Z" transform="matrix(1,0,0,1,496,453)"/></g></g><g id="y.edge.17"><g stroke-linecap="butt" stroke-miterlimit="1.45" shape-rendering="geometricPrecision" text-rendering="geometricPrecision"><path fill="none" d="M138.6514 115.9703 L57.774 399.2729" transform="matrix(1,0,0,1,496,453)"/><path stroke="none" d="M55.5779 406.9655 L63.68 396.7991 L58.0485 398.3113 L54.0641 394.054 Z" transform="matrix(1,0,0,1,496,453)"/></g></g><g id="y.edge.18"><g stroke-linecap="butt" stroke-miterlimit="1.45" shape-rendering="geometricPrecision" text-rendering="geometricPrecision"><path fill="none" d="M143.8831 115.9703 L159.9748 370.1664" transform="matrix(1,0,0,1,496,453)"/><path stroke="none" d="M160.4802 378.1505 L164.7121 365.8586 L159.9116 369.1684 L154.732 366.4903 Z" transform="matrix(1,0,0,1,496,453)"/></g></g><g id="y.edge.1"><g stroke-linecap="butt" stroke-miterlimit="1.45" shape-rendering="geometricPrecision" text-rendering="geometricPrecision"><path fill="none" d="M10.2905 -13.8791 L88.3421 -119.149" transform="matrix(1,0,0,1,496,453)"/><path stroke="none" d="M93.1069 -125.5753 L81.9433 -118.9138 L87.7466 -118.3457 L89.9762 -112.9579 Z" transform="matrix(1,0,0,1,496,453)"/></g></g><g id="y.edge.4"><g stroke-linecap="butt" stroke-miterlimit="1.45" shape-rendering="geometricPrecision" text-rendering="geometricPrecision"><path fill="none" d="M154.2158 -147.4308 L347.8994 -173.9937" transform="matrix(1,0,0,1,496,453)"/><path stroke="none" d="M355.8252 -175.0807 L343.2571 -178.4039 L346.9087 -173.8578 L344.6159 -168.4966 Z" transform="matrix(1,0,0,1,496,453)"/></g></g><g id="y.edge.2"><g stroke-linecap="butt" stroke-miterlimit="1.45" shape-rendering="geometricPrecision" text-rendering="geometricPrecision"><path fill="none" d="M-10.9994 -13.7119 L-92.4645 -115.2664" transform="matrix(1,0,0,1,496,453)"/><path stroke="none" d="M-97.4703 -121.5067 L-93.8618 -109.0176 L-91.8388 -114.4864 L-86.0614 -115.2749 Z" transform="matrix(1,0,0,1,496,453)"/></g></g><g id="y.edge.10"><g stroke-linecap="butt" stroke-miterlimit="1.45" shape-rendering="geometricPrecision" text-rendering="geometricPrecision"><path fill="none" d="M-105.9352 -151.5067 L-46.7737 -400.2344" transform="matrix(1,0,0,1,496,453)"/><path stroke="none" d="M-44.9225 -408.0173 L-52.5636 -397.5 L-47.0051 -399.2616 L-42.835 -395.186 Z" transform="matrix(1,0,0,1,496,453)"/></g></g><g id="y.edge.16"><g stroke-linecap="butt" stroke-miterlimit="1.45" shape-rendering="geometricPrecision" text-rendering="geometricPrecision"><path fill="none" d="M-194.4922 44.2606 L-363.9232 160.0145" transform="matrix(1,0,0,1,496,453)"/><path stroke="none" d="M-370.5288 164.5274 L-357.7998 161.8865 L-363.0975 159.4504 L-363.4409 153.6295 Z" transform="matrix(1,0,0,1,496,453)"/></g></g><g id="y.edge.6"><g stroke-linecap="butt" stroke-miterlimit="1.45" shape-rendering="geometricPrecision" text-rendering="geometricPrecision"><path fill="none" d="M118.2216 -155.5753 L256.9722 -304.3101" transform="matrix(1,0,0,1,496,453)"/><path stroke="none" d="M262.4293 -310.1599 L250.5875 -304.7959 L256.2901 -303.5789 L257.8998 -297.9745 Z" transform="matrix(1,0,0,1,496,453)"/></g></g><g id="y.edge.5"><g stroke-linecap="butt" stroke-miterlimit="1.45" shape-rendering="geometricPrecision" text-rendering="geometricPrecision"><path fill="none" d="M134.3295 -155.5753 L306.5338 -241.3887" transform="matrix(1,0,0,1,496,453)"/><path stroke="none" d="M313.6941 -244.9568 L300.7237 -244.0798 L305.6388 -240.9427 L305.1838 -235.1295 Z" transform="matrix(1,0,0,1,496,453)"/></g></g><g id="y.edge.9"><g stroke-linecap="butt" stroke-miterlimit="1.45" shape-rendering="geometricPrecision" text-rendering="geometricPrecision"><path fill="none" d="M101.8836 -155.5753 L64.0152 -397.8167" transform="matrix(1,0,0,1,496,453)"/><path stroke="none" d="M62.7796 -405.7207 L59.693 -393.0925 L64.1697 -396.8287 L69.573 -394.637 Z" transform="matrix(1,0,0,1,496,453)"/></g></g><g id="y.edge.8"><g stroke-linecap="butt" stroke-miterlimit="1.45" shape-rendering="geometricPrecision" text-rendering="geometricPrecision"><path fill="none" d="M106.3114 -155.5753 L137.2307 -378.2436" transform="matrix(1,0,0,1,496,453)"/><path stroke="none" d="M138.3311 -386.1676 L131.7281 -374.9693 L137.0932 -377.2531 L141.6331 -373.5939 Z" transform="matrix(1,0,0,1,496,453)"/></g></g><g id="y.edge.7"><g stroke-linecap="butt" stroke-miterlimit="1.45" shape-rendering="geometricPrecision" text-rendering="geometricPrecision"><path fill="none" d="M111.297 -155.5753 L201.4017 -346.7867" transform="matrix(1,0,0,1,496,453)"/><path stroke="none" d="M204.8119 -354.0234 L195.1736 -345.2997 L200.9754 -345.8821 L204.2196 -341.0369 Z" transform="matrix(1,0,0,1,496,453)"/></g></g><g id="y.edge.23"><g stroke-linecap="butt" stroke-miterlimit="1.45" shape-rendering="geometricPrecision" text-rendering="geometricPrecision"><path fill="none" d="M162.3777 85.9703 L389.3263 -89.1067" transform="matrix(1,0,0,1,496,453)"/><path stroke="none" d="M395.6605 -93.9932 L383.1051 -90.6224 L388.5345 -88.4959 L389.2132 -82.7046 Z" transform="matrix(1,0,0,1,496,453)"/></g></g><g id="y.edge.19"><g stroke-linecap="butt" stroke-miterlimit="1.45" shape-rendering="geometricPrecision" text-rendering="geometricPrecision"><path fill="none" d="M150.6198 115.9703 L251.2465 312.3481" transform="matrix(1,0,0,1,496,453)"/><path stroke="none" d="M254.8948 319.4678 L253.8722 306.5081 L250.7905 311.4581 L244.9726 311.0684 Z" transform="matrix(1,0,0,1,496,453)"/></g></g><g id="y.edge.20"><g stroke-linecap="butt" stroke-miterlimit="1.45" shape-rendering="geometricPrecision" text-rendering="geometricPrecision"><path fill="none" d="M166.1817 115.9703 L324.2522 217.9592" transform="matrix(1,0,0,1,496,453)"/><path stroke="none" d="M330.9744 222.2964 L323.6018 211.5892 L323.4119 217.417 L318.1803 219.992 Z" transform="matrix(1,0,0,1,496,453)"/></g></g><g id="y.edge.21"><g stroke-linecap="butt" stroke-miterlimit="1.45" shape-rendering="geometricPrecision" text-rendering="geometricPrecision"><path fill="none" d="M182.2744 101.8921 L348.4385 105.7856" transform="matrix(1,0,0,1,496,453)"/><path stroke="none" d="M356.4363 105.973 L344.5567 100.6933 L347.4388 105.7622 L344.3224 110.6905 Z" transform="matrix(1,0,0,1,496,453)"/></g></g><g id="y.edge.22"><g stroke-linecap="butt" stroke-miterlimit="1.45" shape-rendering="geometricPrecision" text-rendering="geometricPrecision"><path fill="none" d="M180.241 85.9703 L387.7073 2.5553" transform="matrix(1,0,0,1,496,453)"/><path stroke="none" d="M395.1298 -0.429 L382.1308 -0.5916 L386.7795 2.9284 L385.8613 8.6866 Z" transform="matrix(1,0,0,1,496,453)"/></g></g><g id="y.edge.11"><g stroke-linecap="butt" stroke-miterlimit="1.45" shape-rendering="geometricPrecision" text-rendering="geometricPrecision"><path fill="none" d="M-114.0929 -151.5067 L-177.9128 -360.076" transform="matrix(1,0,0,1,496,453)"/><path stroke="none" d="M-180.2536 -367.7259 L-181.5236 -354.7881 L-177.6202 -359.1198 L-171.9612 -357.7141 Z" transform="matrix(1,0,0,1,496,453)"/></g></g><g id="y.edge.12"><g stroke-linecap="butt" stroke-miterlimit="1.45" shape-rendering="geometricPrecision" text-rendering="geometricPrecision"><path fill="none" d="M-132.0355 -151.5067 L-293.4008 -258.9287" transform="matrix(1,0,0,1,496,453)"/><path stroke="none" d="M-300.0602 -263.3619 L-292.8419 -252.55 L-292.5684 -258.3746 L-287.3004 -260.8742 Z" transform="matrix(1,0,0,1,496,453)"/></g></g><g id="y.edge.13"><g stroke-linecap="butt" stroke-miterlimit="1.45" shape-rendering="geometricPrecision" text-rendering="geometricPrecision"><path fill="none" d="M-167.6935 -137.7664 L-328.7143 -141.2522" transform="matrix(1,0,0,1,496,453)"/><path stroke="none" d="M-336.7124 -141.4254 L-324.8235 -136.1668 L-327.7145 -141.2306 L-324.607 -146.1645 Z" transform="matrix(1,0,0,1,496,453)"/></g></g><g id="y.edge.24"><g stroke-linecap="butt" stroke-miterlimit="1.45" shape-rendering="geometricPrecision" text-rendering="geometricPrecision"><path fill="none" d="M-8.3794 14.2666 L-75.7668 128.9991" transform="matrix(1,0,0,1,496,453)"/><path stroke="none" d="M-79.8183 135.8973 L-69.4296 128.0823 L-75.2603 128.1369 L-78.0523 123.0178 Z" transform="matrix(1,0,0,1,496,453)"/></g></g><g id="y.edge.25"><g stroke-linecap="butt" stroke-miterlimit="1.45" shape-rendering="geometricPrecision" text-rendering="geometricPrecision"><path fill="none" d="M-129.8472 164.134 L-324.7858 226.7353" transform="matrix(1,0,0,1,496,453)"/><path stroke="none" d="M-332.4027 229.1814 L-319.4486 230.2729 L-323.8337 226.4296 L-322.5062 220.7518 Z" transform="matrix(1,0,0,1,496,453)"/></g></g><g id="y.edge.26"><g stroke-linecap="butt" stroke-miterlimit="1.45" shape-rendering="geometricPrecision" text-rendering="geometricPrecision"><path fill="none" d="M-105.5021 165.8973 L-256.8684 300.4558" transform="matrix(1,0,0,1,496,453)"/><path stroke="none" d="M-262.8475 305.7709 L-250.5569 301.5351 L-256.121 299.7914 L-257.2009 294.0613 Z" transform="matrix(1,0,0,1,496,453)"/></g></g><g id="y.edge.27"><g stroke-linecap="butt" stroke-miterlimit="1.45" shape-rendering="geometricPrecision" text-rendering="geometricPrecision"><path fill="none" d="M-94.915 165.8973 L-176.4538 360.4545" transform="matrix(1,0,0,1,496,453)"/><path stroke="none" d="M-179.546 367.8327 L-170.2963 358.698 L-176.0673 359.5322 L-179.5191 354.8328 Z" transform="matrix(1,0,0,1,496,453)"/></g></g><g id="y.edge.28"><g stroke-linecap="butt" stroke-miterlimit="1.45" shape-rendering="geometricPrecision" text-rendering="geometricPrecision"><path fill="none" d="M-90.5605 165.8973 L-118.6948 384.331" transform="matrix(1,0,0,1,496,453)"/><path stroke="none" d="M-119.7168 392.2655 L-113.2248 381.0025 L-118.5671 383.3392 L-123.1429 379.7251 Z" transform="matrix(1,0,0,1,496,453)"/></g></g><g id="y.edge.29"><g stroke-linecap="butt" stroke-miterlimit="1.45" shape-rendering="geometricPrecision" text-rendering="geometricPrecision"><path fill="none" d="M-86.1746 165.8973 L-47.9033 399.8404" transform="matrix(1,0,0,1,496,453)"/><path stroke="none" d="M-46.6117 407.7354 L-43.6147 395.0856 L-48.0647 398.8535 L-53.4835 396.7001 Z" transform="matrix(1,0,0,1,496,453)"/></g></g><g id="tooltip.y.node.10" pointer-events="none" visibility="hidden"><g fill="#C3D4E8" stroke="#C3D4E8" font-family="sans-serif" shape-rendering="geometricPrecision" text-rendering="geometricPrecision"><rect width="302" height="17" x="0" y="0" stroke="none" clip-path="url(#clipPath3)"/><text x="4" y="13" fill="#000" stroke="none" clip-path="url(#clipPath3)" xml:space="preserve">Copyright holder and unique sponsor of PRoot.</text></g><g fill="#316AC4" stroke="#316AC4" font-family="sans-serif" shape-rendering="geometricPrecision" text-rendering="geometricPrecision"><path fill-rule="evenodd" stroke="none" d="M0 0 L302 0 L302 17 L0 17 L0 0 ZM1 1 L301 1 L301 16 L1 16 L1 1 Z" clip-path="url(#clipPath3)"/></g></g><g id="tooltip.y.node.11" pointer-events="none" visibility="hidden"><g fill="#C3D4E8" stroke="#C3D4E8" font-family="sans-serif" shape-rendering="geometricPrecision" text-rendering="geometricPrecision"><rect width="92" height="17" x="0" y="0" stroke="none" clip-path="url(#clipPath4)"/><text x="4" y="13" fill="#000" stroke="none" clip-path="url(#clipPath4)" xml:space="preserve">Lightning talk</text></g><g fill="#316AC4" stroke="#316AC4" font-family="sans-serif" shape-rendering="geometricPrecision" text-rendering="geometricPrecision"><path fill-rule="evenodd" stroke="none" d="M0 0 L92 0 L92 17 L0 17 L0 0 ZM1 1 L91 1 L91 16 L1 16 L1 1 Z" clip-path="url(#clipPath4)"/></g></g><g id="tooltip.y.node.21" pointer-events="none" visibility="hidden"><g fill="#C3D4E8" stroke="#C3D4E8" font-family="sans-serif" shape-rendering="geometricPrecision" text-rendering="geometricPrecision"><rect width="659" height="17" x="0" y="0" stroke="none" clip-path="url(#clipPath5)"/><text x="4" y="13" fill="#000" stroke="none" clip-path="url(#clipPath5)" xml:space="preserve">Enea uses PRoot in an internal tool (host environment for API testing of target software) at a customer.</text></g><g fill="#316AC4" stroke="#316AC4" font-family="sans-serif" shape-rendering="geometricPrecision" text-rendering="geometricPrecision"><path fill-rule="evenodd" stroke="none" d="M0 0 L659 0 L659 17 L0 17 L0 0 ZM1 1 L658 1 L658 16 L1 16 L1 1 Z" clip-path="url(#clipPath5)"/></g></g><g id="tooltip.y.node.26" pointer-events="none" visibility="hidden"><g fill="#C3D4E8" stroke="#C3D4E8" font-family="sans-serif" shape-rendering="geometricPrecision" text-rendering="geometricPrecision"><rect width="432" height="17" x="0" y="0" stroke="none" clip-path="url(#clipPath6)"/><text x="4" y="13" fill="#000" stroke="none" clip-path="url(#clipPath6)" xml:space="preserve">About 175 domains references http://proot.me according to Google</text></g><g fill="#316AC4" stroke="#316AC4" font-family="sans-serif" shape-rendering="geometricPrecision" text-rendering="geometricPrecision"><path fill-rule="evenodd" stroke="none" d="M0 0 L432 0 L432 17 L0 17 L0 0 ZM1 1 L431 1 L431 16 L1 16 L1 1 Z" clip-path="url(#clipPath6)"/></g></g><g id="tooltip.y.node.27" pointer-events="none" visibility="hidden"><g fill="#C3D4E8" stroke="#C3D4E8" font-family="sans-serif" shape-rendering="geometricPrecision" text-rendering="geometricPrecision"><rect width="496" height="17" x="0" y="0" stroke="none" clip-path="url(#clipPath7)"/><text x="4" y="13" fill="#000" stroke="none" clip-path="url(#clipPath7)" xml:space="preserve">Sony has an internal wiki page about CE Linux that references http://proot.me</text></g><g fill="#316AC4" stroke="#316AC4" font-family="sans-serif" shape-rendering="geometricPrecision" text-rendering="geometricPrecision"><path fill-rule="evenodd" stroke="none" d="M0 0 L496 0 L496 17 L0 17 L0 0 ZM1 1 L495 1 L495 16 L1 16 L1 1 Z" clip-path="url(#clipPath7)"/></g></g><g id="tooltip.y.node.29" pointer-events="none" visibility="hidden"><g fill="#C3D4E8" stroke="#C3D4E8" font-family="sans-serif" shape-rendering="geometricPrecision" text-rendering="geometricPrecision"><rect width="403" height="17" x="0" y="0" stroke="none" clip-path="url(#clipPath8)"/><text x="4" y="13" fill="#000" stroke="none" clip-path="url(#clipPath8)" xml:space="preserve">Cisco has an internal wiki page that references http://proot.me</text></g><g fill="#316AC4" stroke="#316AC4" font-family="sans-serif" shape-rendering="geometricPrecision" text-rendering="geometricPrecision"><path fill-rule="evenodd" stroke="none" d="M0 0 L403 0 L403 17 L0 17 L0 0 ZM1 1 L402 1 L402 16 L1 16 L1 1 Z" clip-path="url(#clipPath8)"/></g></g><g id="tooltip.y.node.30" pointer-events="none" visibility="hidden"><g fill="#C3D4E8" stroke="#C3D4E8" font-family="sans-serif" shape-rendering="geometricPrecision" text-rendering="geometricPrecision"><rect width="450" height="17" x="0" y="0" stroke="none" clip-path="url(#clipPath9)"/><text x="4" y="13" fill="#000" stroke="none" clip-path="url(#clipPath9)" xml:space="preserve">Ericsson has an internal Bugzilla ticket that references http://proot.me</text></g><g fill="#316AC4" stroke="#316AC4" font-family="sans-serif" shape-rendering="geometricPrecision" text-rendering="geometricPrecision"><path fill-rule="evenodd" stroke="none" d="M0 0 L450 0 L450 17 L0 17 L0 0 ZM1 1 L449 1 L449 16 L1 16 L1 1 Z" clip-path="url(#clipPath9)"/></g></g></g></svg>