<svg xmlns="http://www.w3.org/2000/svg" xmlns:svg="http://www.w3.org/2000/svg" id="svg3593" width="655.532" height="158.863" version="1.1"><defs id="defs3595"><marker id="Arrow2Lstart-9" orient="auto" overflow="visible" refX="0" refY="0"><path id="path4780-3" fill-rule="evenodd" stroke-linejoin="round" stroke-width=".625" d="M 8.7185878,4.0337352 -2.2072895,0.01601326 8.7185884,-4.0017078 c -1.7454984,2.3720609 -1.7354408,5.6174519 -6e-7,8.035443 z" font-size="12" transform="matrix(1.1,0,0,1.1,1.1,0)"/></marker><marker id="Arrow2Lend-2" orient="auto" overflow="visible" refX="0" refY="0"><path id="path4783-4" fill-rule="evenodd" stroke-linejoin="round" stroke-width=".625" d="M 8.7185878,4.0337352 -2.2072895,0.01601326 8.7185884,-4.0017078 c -1.7454984,2.3720609 -1.7354408,5.6174519 -6e-7,8.035443 z" font-size="12" transform="matrix(-1.1,0,0,-1.1,-1.1,0)"/></marker><marker id="marker3615" orient="auto" overflow="visible" refX="0" refY="0"><path id="path3617" fill-rule="evenodd" stroke-linejoin="round" stroke-width=".625" d="M 8.7185878,4.0337352 -2.2072895,0.01601326 8.7185884,-4.0017078 c -1.7454984,2.3720609 -1.7354408,5.6174519 -6e-7,8.035443 z" font-size="12" transform="matrix(1.1,0,0,1.1,1.1,0)"/></marker><marker id="marker3619" orient="auto" overflow="visible" refX="0" refY="0"><path id="path3621" fill-rule="evenodd" stroke-linejoin="round" stroke-width=".625" d="M 8.7185878,4.0337352 -2.2072895,0.01601326 8.7185884,-4.0017078 c -1.7454984,2.3720609 -1.7354408,5.6174519 -6e-7,8.035443 z" font-size="12" transform="matrix(-1.1,0,0,-1.1,-1.1,0)"/></marker><marker id="marker3623" orient="auto" overflow="visible" refX="0" refY="0"><path id="path3625" fill-rule="evenodd" stroke-linejoin="round" stroke-width=".625" d="M 8.7185878,4.0337352 -2.2072895,0.01601326 8.7185884,-4.0017078 c -1.7454984,2.3720609 -1.7354408,5.6174519 -6e-7,8.035443 z" font-size="12" transform="matrix(1.1,0,0,1.1,1.1,0)"/></marker><marker id="marker3627" orient="auto" overflow="visible" refX="0" refY="0"><path id="path3629" fill-rule="evenodd" stroke-linejoin="round" stroke-width=".625" d="M 8.7185878,4.0337352 -2.2072895,0.01601326 8.7185884,-4.0017078 c -1.7454984,2.3720609 -1.7354408,5.6174519 -6e-7,8.035443 z" font-size="12" transform="matrix(-1.1,0,0,-1.1,-1.1,0)"/></marker><marker id="marker3631" orient="auto" overflow="visible" refX="0" refY="0"><path id="path3633" fill-rule="evenodd" stroke-linejoin="round" stroke-width=".625" d="M 8.7185878,4.0337352 -2.2072895,0.01601326 8.7185884,-4.0017078 c -1.7454984,2.3720609 -1.7354408,5.6174519 -6e-7,8.035443 z" font-size="12" transform="matrix(1.1,0,0,1.1,1.1,0)"/></marker><marker id="marker3635" orient="auto" overflow="visible" refX="0" refY="0"><path id="path3637" fill-rule="evenodd" stroke-linejoin="round" stroke-width=".625" d="M 8.7185878,4.0337352 -2.2072895,0.01601326 8.7185884,-4.0017078 c -1.7454984,2.3720609 -1.7354408,5.6174519 -6e-7,8.035443 z" font-size="12" transform="matrix(-1.1,0,0,-1.1,-1.1,0)"/></marker><marker id="marker3639" orient="auto" overflow="visible" refX="0" refY="0"><path id="path3641" fill-rule="evenodd" stroke-linejoin="round" stroke-width=".625" d="M 8.7185878,4.0337352 -2.2072895,0.01601326 8.7185884,-4.0017078 c -1.7454984,2.3720609 -1.7354408,5.6174519 -6e-7,8.035443 z" font-size="12" transform="matrix(1.1,0,0,1.1,1.1,0)"/></marker><marker id="marker3643" orient="auto" overflow="visible" refX="0" refY="0"><path id="path3645" fill-rule="evenodd" stroke-linejoin="round" stroke-width=".625" d="M 8.7185878,4.0337352 -2.2072895,0.01601326 8.7185884,-4.0017078 c -1.7454984,2.3720609 -1.7354408,5.6174519 -6e-7,8.035443 z" font-size="12" transform="matrix(-1.1,0,0,-1.1,-1.1,0)"/></marker><marker id="Arrow2Lstart-9-6" orient="auto" overflow="visible" refX="0" refY="0"><path id="path4780-3-1" fill-rule="evenodd" stroke-linejoin="round" stroke-width=".625" d="M 8.7185878,4.0337352 -2.2072895,0.01601326 8.7185884,-4.0017078 c -1.7454984,2.3720609 -1.7354408,5.6174519 -6e-7,8.035443 z" font-size="12" transform="matrix(1.1,0,0,1.1,1.1,0)"/></marker><marker id="Arrow2Lend-2-5" orient="auto" overflow="visible" refX="0" refY="0"><path id="path4783-4-5" fill-rule="evenodd" stroke-linejoin="round" stroke-width=".625" d="M 8.7185878,4.0337352 -2.2072895,0.01601326 8.7185884,-4.0017078 c -1.7454984,2.3720609 -1.7354408,5.6174519 -6e-7,8.035443 z" font-size="12" transform="matrix(-1.1,0,0,-1.1,-1.1,0)"/></marker><marker id="Arrow2Lstart-9-7" orient="auto" overflow="visible" refX="0" refY="0"><path id="path4780-3-6" fill-rule="evenodd" stroke-linejoin="round" stroke-width=".625" d="M 8.7185878,4.0337352 -2.2072895,0.01601326 8.7185884,-4.0017078 c -1.7454984,2.3720609 -1.7354408,5.6174519 -6e-7,8.035443 z" font-size="12" transform="matrix(1.1,0,0,1.1,1.1,0)"/></marker><marker id="Arrow2Lend-2-56" orient="auto" overflow="visible" refX="0" refY="0"><path id="path4783-4-9" fill-rule="evenodd" stroke-linejoin="round" stroke-width=".625" d="M 8.7185878,4.0337352 -2.2072895,0.01601326 8.7185884,-4.0017078 c -1.7454984,2.3720609 -1.7354408,5.6174519 -6e-7,8.035443 z" font-size="12" transform="matrix(-1.1,0,0,-1.1,-1.1,0)"/></marker><marker id="Arrow2Lstart-9-74" orient="auto" overflow="visible" refX="0" refY="0"><path id="path4780-3-5" fill-rule="evenodd" stroke-linejoin="round" stroke-width=".625" d="M 8.7185878,4.0337352 -2.2072895,0.01601326 8.7185884,-4.0017078 c -1.7454984,2.3720609 -1.7354408,5.6174519 -6e-7,8.035443 z" font-size="12" transform="matrix(1.1,0,0,1.1,1.1,0)"/></marker><marker id="Arrow2Lend-2-2" orient="auto" overflow="visible" refX="0" refY="0"><path id="path4783-4-54" fill-rule="evenodd" stroke-linejoin="round" stroke-width=".625" d="M 8.7185878,4.0337352 -2.2072895,0.01601326 8.7185884,-4.0017078 c -1.7454984,2.3720609 -1.7354408,5.6174519 -6e-7,8.035443 z" font-size="12" transform="matrix(-1.1,0,0,-1.1,-1.1,0)"/></marker><marker id="Arrow2Lstart-9-4" orient="auto" overflow="visible" refX="0" refY="0"><path id="path4780-3-4" fill-rule="evenodd" stroke-linejoin="round" stroke-width=".625" d="M 8.7185878,4.0337352 -2.2072895,0.01601326 8.7185884,-4.0017078 c -1.7454984,2.3720609 -1.7354408,5.6174519 -6e-7,8.035443 z" font-size="12" transform="matrix(1.1,0,0,1.1,1.1,0)"/></marker><marker id="Arrow2Lend-2-3" orient="auto" overflow="visible" refX="0" refY="0"><path id="path4783-4-0" fill-rule="evenodd" stroke-linejoin="round" stroke-width=".625" d="M 8.7185878,4.0337352 -2.2072895,0.01601326 8.7185884,-4.0017078 c -1.7454984,2.3720609 -1.7354408,5.6174519 -6e-7,8.035443 z" font-size="12" transform="matrix(-1.1,0,0,-1.1,-1.1,0)"/></marker><marker id="Arrow2Lstart-9-8" orient="auto" overflow="visible" refX="0" refY="0"><path id="path4780-3-68" fill-rule="evenodd" stroke-linejoin="round" stroke-width=".625" d="M 8.7185878,4.0337352 -2.2072895,0.01601326 8.7185884,-4.0017078 c -1.7454984,2.3720609 -1.7354408,5.6174519 -6e-7,8.035443 z" font-size="12" transform="matrix(1.1,0,0,1.1,1.1,0)"/></marker><marker id="Arrow2Lend-2-8" orient="auto" overflow="visible" refX="0" refY="0"><path id="path4783-4-4" fill-rule="evenodd" stroke-linejoin="round" stroke-width=".625" d="M 8.7185878,4.0337352 -2.2072895,0.01601326 8.7185884,-4.0017078 c -1.7454984,2.3720609 -1.7354408,5.6174519 -6e-7,8.035443 z" font-size="12" transform="matrix(-1.1,0,0,-1.1,-1.1,0)"/></marker><marker id="marker4078" orient="auto" overflow="visible" refX="0" refY="0"><path id="path4080" fill-rule="evenodd" stroke-linejoin="round" stroke-width=".625" d="M 8.7185878,4.0337352 -2.2072895,0.01601326 8.7185884,-4.0017078 c -1.7454984,2.3720609 -1.7354408,5.6174519 -6e-7,8.035443 z" font-size="12" transform="matrix(1.1,0,0,1.1,1.1,0)"/></marker><marker id="marker4082" orient="auto" overflow="visible" refX="0" refY="0"><path id="path4084" fill-rule="evenodd" stroke-linejoin="round" stroke-width=".625" d="M 8.7185878,4.0337352 -2.2072895,0.01601326 8.7185884,-4.0017078 c -1.7454984,2.3720609 -1.7354408,5.6174519 -6e-7,8.035443 z" font-size="12" transform="matrix(-1.1,0,0,-1.1,-1.1,0)"/></marker><marker id="marker4086" orient="auto" overflow="visible" refX="0" refY="0"><path id="path4088" fill-rule="evenodd" stroke-linejoin="round" stroke-width=".625" d="M 8.7185878,4.0337352 -2.2072895,0.01601326 8.7185884,-4.0017078 c -1.7454984,2.3720609 -1.7354408,5.6174519 -6e-7,8.035443 z" font-size="12" transform="matrix(1.1,0,0,1.1,1.1,0)"/></marker><marker id="marker4090" orient="auto" overflow="visible" refX="0" refY="0"><path id="path4092" fill-rule="evenodd" stroke-linejoin="round" stroke-width=".625" d="M 8.7185878,4.0337352 -2.2072895,0.01601326 8.7185884,-4.0017078 c -1.7454984,2.3720609 -1.7354408,5.6174519 -6e-7,8.035443 z" font-size="12" transform="matrix(-1.1,0,0,-1.1,-1.1,0)"/></marker><marker id="Arrow2Lstart-9-0" orient="auto" overflow="visible" refX="0" refY="0"><path id="path4780-3-61" fill-rule="evenodd" stroke-linejoin="round" stroke-width=".625" d="M 8.7185878,4.0337352 -2.2072895,0.01601326 8.7185884,-4.0017078 c -1.7454984,2.3720609 -1.7354408,5.6174519 -6e-7,8.035443 z" font-size="12" transform="matrix(1.1,0,0,1.1,1.1,0)"/></marker><marker id="Arrow2Lend-2-59" orient="auto" overflow="visible" refX="0" refY="0"><path id="path4783-4-49" fill-rule="evenodd" stroke-linejoin="round" stroke-width=".625" d="M 8.7185878,4.0337352 -2.2072895,0.01601326 8.7185884,-4.0017078 c -1.7454984,2.3720609 -1.7354408,5.6174519 -6e-7,8.035443 z" font-size="12" transform="matrix(-1.1,0,0,-1.1,-1.1,0)"/></marker><marker id="marker4212" orient="auto" overflow="visible" refX="0" refY="0"><path id="path4214" fill-rule="evenodd" stroke-linejoin="round" stroke-width=".625" d="M 8.7185878,4.0337352 -2.2072895,0.01601326 8.7185884,-4.0017078 c -1.7454984,2.3720609 -1.7354408,5.6174519 -6e-7,8.035443 z" font-size="12" transform="matrix(1.1,0,0,1.1,1.1,0)"/></marker><marker id="marker4216" orient="auto" overflow="visible" refX="0" refY="0"><path id="path4218" fill-rule="evenodd" stroke-linejoin="round" stroke-width=".625" d="M 8.7185878,4.0337352 -2.2072895,0.01601326 8.7185884,-4.0017078 c -1.7454984,2.3720609 -1.7354408,5.6174519 -6e-7,8.035443 z" font-size="12" transform="matrix(-1.1,0,0,-1.1,-1.1,0)"/></marker><marker id="marker4220" orient="auto" overflow="visible" refX="0" refY="0"><path id="path4222" fill-rule="evenodd" stroke-linejoin="round" stroke-width=".625" d="M 8.7185878,4.0337352 -2.2072895,0.01601326 8.7185884,-4.0017078 c -1.7454984,2.3720609 -1.7354408,5.6174519 -6e-7,8.035443 z" font-size="12" transform="matrix(1.1,0,0,1.1,1.1,0)"/></marker><marker id="marker4224" orient="auto" overflow="visible" refX="0" refY="0"><path id="path4226" fill-rule="evenodd" stroke-linejoin="round" stroke-width=".625" d="M 8.7185878,4.0337352 -2.2072895,0.01601326 8.7185884,-4.0017078 c -1.7454984,2.3720609 -1.7354408,5.6174519 -6e-7,8.035443 z" font-size="12" transform="matrix(-1.1,0,0,-1.1,-1.1,0)"/></marker><marker id="Arrow2Lstart-9-81" orient="auto" overflow="visible" refX="0" refY="0"><path id="path4780-3-2" fill-rule="evenodd" stroke-linejoin="round" stroke-width=".625" d="M 8.7185878,4.0337352 -2.2072895,0.01601326 8.7185884,-4.0017078 c -1.7454984,2.3720609 -1.7354408,5.6174519 -6e-7,8.035443 z" font-size="12" transform="matrix(1.1,0,0,1.1,1.1,0)"/></marker><marker id="Arrow2Lend-2-9" orient="auto" overflow="visible" refX="0" refY="0"><path id="path4783-4-3" fill-rule="evenodd" stroke-linejoin="round" stroke-width=".625" d="M 8.7185878,4.0337352 -2.2072895,0.01601326 8.7185884,-4.0017078 c -1.7454984,2.3720609 -1.7354408,5.6174519 -6e-7,8.035443 z" font-size="12" transform="matrix(-1.1,0,0,-1.1,-1.1,0)"/></marker><marker id="marker4324" orient="auto" overflow="visible" refX="0" refY="0"><path id="path4326" fill-rule="evenodd" stroke-linejoin="round" stroke-width=".625" d="M 8.7185878,4.0337352 -2.2072895,0.01601326 8.7185884,-4.0017078 c -1.7454984,2.3720609 -1.7354408,5.6174519 -6e-7,8.035443 z" font-size="12" transform="matrix(1.1,0,0,1.1,1.1,0)"/></marker><marker id="marker4328" orient="auto" overflow="visible" refX="0" refY="0"><path id="path4330" fill-rule="evenodd" stroke-linejoin="round" stroke-width=".625" d="M 8.7185878,4.0337352 -2.2072895,0.01601326 8.7185884,-4.0017078 c -1.7454984,2.3720609 -1.7354408,5.6174519 -6e-7,8.035443 z" font-size="12" transform="matrix(-1.1,0,0,-1.1,-1.1,0)"/></marker><marker id="marker4332" orient="auto" overflow="visible" refX="0" refY="0"><path id="path4334" fill-rule="evenodd" stroke-linejoin="round" stroke-width=".625" d="M 8.7185878,4.0337352 -2.2072895,0.01601326 8.7185884,-4.0017078 c -1.7454984,2.3720609 -1.7354408,5.6174519 -6e-7,8.035443 z" font-size="12" transform="matrix(1.1,0,0,1.1,1.1,0)"/></marker><marker id="marker4336" orient="auto" overflow="visible" refX="0" refY="0"><path id="path4338" fill-rule="evenodd" stroke-linejoin="round" stroke-width=".625" d="M 8.7185878,4.0337352 -2.2072895,0.01601326 8.7185884,-4.0017078 c -1.7454984,2.3720609 -1.7354408,5.6174519 -6e-7,8.035443 z" font-size="12" transform="matrix(-1.1,0,0,-1.1,-1.1,0)"/></marker></defs><metadata id="metadata3598"/><g id="layer1" transform="translate(42.406933,-519.46875)"><rect id="rect4419" width="90" height="20" x="392.859" y="549.738" fill="#ccc" fill-opacity="1" stroke="none"/><rect id="rect3878" width="90" height="40" x="392.859" y="529.738" fill="none" stroke="#000" stroke-dasharray="none" stroke-miterlimit="4" stroke-opacity="1" stroke-width=".531" ry="0"/><text id="text3880" x="397.859" y="544.738" fill="#000" fill-opacity="1" stroke="none" font-family="Sans" font-size="16" font-stretch="normal" font-style="normal" font-variant="normal" font-weight="normal" letter-spacing="0" text-anchor="start" word-spacing="0" writing-mode="lr-tb" xml:space="preserve" style="text-align:start;line-height:125%;-inkscape-font-specification:Sans"><tspan font-style="normal" style="text-align:start;line-height:125%;-inkscape-font-specification:Sans" id="tspan3882" x="397.859" y="544.738" font-family="Sans" font-size="16" font-stretch="normal" font-variant="normal" font-weight="normal" text-anchor="start" writing-mode="lr-tb">process 1</tspan></text><text id="text3903" x="412.859" y="564.738" fill="#000" fill-opacity="1" stroke="none" font-family="Sans" font-size="16" font-stretch="normal" font-style="normal" font-variant="normal" font-weight="normal" letter-spacing="0" text-anchor="start" word-spacing="0" writing-mode="lr-tb" xml:space="preserve" style="text-align:start;line-height:125%;-inkscape-font-specification:Sans"><tspan id="tspan3905" x="412.859" y="564.738" font-family="Sans" font-size="16" font-stretch="normal" font-style="normal" font-variant="normal" font-weight="normal" text-anchor="start" writing-mode="lr-tb" style="text-align:start;line-height:125%;-inkscape-font-specification:Sans">QEMU</tspan></text><rect id="rect3878-5" width="60" height="20" x="467.859" y="584.738" fill="none" stroke="#000" stroke-dasharray="none" stroke-miterlimit="4" stroke-opacity="1" stroke-width=".531"/><text id="text4748" x="472.859" y="599.738" fill="#000" fill-opacity="1" stroke="none" font-family="Sans" font-size="16" font-stretch="normal" font-style="normal" font-variant="normal" font-weight="normal" letter-spacing="0" text-anchor="start" word-spacing="0" writing-mode="lr-tb" xml:space="preserve" style="text-align:start;line-height:125%;-inkscape-font-specification:Sans"><tspan id="tspan4750" x="472.859" y="599.738">PRoot</tspan></text><rect id="rect3878-5-4" width="100" height="20" x="447.859" y="619.738" fill="none" stroke="#000" stroke-dasharray="none" stroke-miterlimit="4" stroke-opacity="1" stroke-width=".531"/><text id="text5420" x="452.859" y="634.738" fill="#000" fill-opacity="1" stroke="none" font-family="Sans" font-size="16" font-stretch="normal" font-style="normal" font-variant="normal" font-weight="normal" letter-spacing="0" text-anchor="start" word-spacing="0" writing-mode="lr-tb" xml:space="preserve" style="text-align:start;line-height:125%;-inkscape-font-specification:Sans"><tspan id="tspan5422" x="452.859" y="634.738">host kernel</tspan></text><text id="text6457" x="489.859" y="549.738" fill="#000" fill-opacity="1" stroke="none" font-family="Sans" font-size="16" font-stretch="normal" font-style="normal" font-variant="normal" font-weight="normal" letter-spacing="0" text-anchor="start" word-spacing="0" writing-mode="lr-tb" xml:space="preserve" style="text-align:start;line-height:125%;-inkscape-font-specification:Sans"><tspan id="tspan6459" x="489.859" y="549.738">...</tspan></text><rect id="rect4419-0" width="90" height="20" x="512.859" y="549.738" fill="#ccc" fill-opacity="1" stroke="none"/><rect id="rect3878-9" width="90" height="40" x="512.859" y="529.738" fill="none" stroke="#000" stroke-dasharray="none" stroke-miterlimit="4" stroke-opacity="1" stroke-width=".531" ry="0"/><text id="text3880-3" x="517.859" y="544.738" fill="#000" fill-opacity="1" stroke="none" font-family="Sans" font-size="16" font-stretch="normal" font-style="normal" font-variant="normal" font-weight="normal" letter-spacing="0" text-anchor="start" word-spacing="0" writing-mode="lr-tb" xml:space="preserve" style="text-align:start;line-height:125%;-inkscape-font-specification:Sans"><tspan font-style="normal" style="text-align:start;line-height:125%;-inkscape-font-specification:Sans" id="tspan3882-6" x="517.859" y="544.738" font-family="Sans" font-size="16" font-stretch="normal" font-variant="normal" font-weight="normal" text-anchor="start" writing-mode="lr-tb">process <tspan id="tspan3359" font-style="italic" style="-inkscape-font-specification:Sans Italic">N</tspan></tspan></text><text id="text3903-0" x="532.859" y="564.738" fill="#000" fill-opacity="1" stroke="none" font-family="Sans" font-size="16" font-stretch="normal" font-style="normal" font-variant="normal" font-weight="normal" letter-spacing="0" text-anchor="start" word-spacing="0" writing-mode="lr-tb" xml:space="preserve" style="text-align:start;line-height:125%;-inkscape-font-specification:Sans"><tspan id="tspan3905-6" x="532.859" y="564.738" font-family="Sans" font-size="16" font-stretch="normal" font-style="normal" font-variant="normal" font-weight="normal" text-anchor="start" writing-mode="lr-tb" style="text-align:start;line-height:125%;-inkscape-font-specification:Sans">QEMU</tspan></text><path id="path8719-4-3" fill="none" stroke="#000" stroke-dasharray="none" stroke-linecap="butt" stroke-linejoin="miter" stroke-miterlimit="4" stroke-opacity="1" stroke-width=".531" marker-end="url(#Arrow2Lend-2)" marker-start="url(#Arrow2Lstart-9)" d="m 497.85881,604.73834 0,15" display="inline"/><path id="path8719-4-3-7" fill="none" stroke="#000" stroke-dasharray="none" stroke-linecap="butt" stroke-linejoin="miter" stroke-miterlimit="4" stroke-opacity="1" stroke-width=".531" marker-end="url(#Arrow2Lend-2)" marker-start="url(#Arrow2Lstart-9)" d="m 457.85881,569.73834 40,15" display="inline"/><path id="path8719-4-3-7-7" fill="none" stroke="#000" stroke-dasharray="none" stroke-linecap="butt" stroke-linejoin="miter" stroke-miterlimit="4" stroke-opacity="1" stroke-width=".531" marker-end="url(#Arrow2Lend-2)" marker-start="url(#Arrow2Lstart-9)" d="m 497.85881,584.73834 39.61431,-15.05459" display="inline"/><rect id="rect4419-09" width="90" height="20" x="242.859" y="549.738" fill="#ccc" fill-opacity="1" stroke="none"/><rect id="rect3878-1" width="90" height="40" x="242.859" y="529.738" fill="none" stroke="#000" stroke-dasharray="none" stroke-miterlimit="4" stroke-opacity="1" stroke-width=".531" ry="0"/><text id="text3880-7" x="247.859" y="544.738" fill="#000" fill-opacity="1" stroke="none" font-family="Sans" font-size="16" font-stretch="normal" font-style="normal" font-variant="normal" font-weight="normal" letter-spacing="0" text-anchor="start" word-spacing="0" writing-mode="lr-tb" xml:space="preserve" style="text-align:start;line-height:125%;-inkscape-font-specification:Sans"><tspan font-style="normal" style="text-align:start;line-height:125%;-inkscape-font-specification:Sans" id="tspan3882-7" x="247.859" y="544.738" font-family="Sans" font-size="16" font-stretch="normal" font-variant="normal" font-weight="normal" text-anchor="start" writing-mode="lr-tb">process 1</tspan></text><text id="text3903-1" x="262.859" y="564.738" fill="#000" fill-opacity="1" stroke="none" font-family="Sans" font-size="16" font-stretch="normal" font-style="normal" font-variant="normal" font-weight="normal" letter-spacing="0" text-anchor="start" word-spacing="0" writing-mode="lr-tb" xml:space="preserve" style="text-align:start;line-height:125%;-inkscape-font-specification:Sans"><tspan id="tspan3905-1" x="262.859" y="564.738" font-family="Sans" font-size="16" font-stretch="normal" font-style="normal" font-variant="normal" font-weight="normal" text-anchor="start" writing-mode="lr-tb" style="text-align:start;line-height:125%;-inkscape-font-specification:Sans">QEMU</tspan></text><rect id="rect3878-5-4-67" width="100" height="20" x="237.859" y="619.738" fill="none" stroke="#000" stroke-dasharray="none" stroke-miterlimit="4" stroke-opacity="1" stroke-width=".531"/><text id="text5420-3" x="242.859" y="634.738" fill="#000" fill-opacity="1" stroke="none" font-family="Sans" font-size="16" font-stretch="normal" font-style="normal" font-variant="normal" font-weight="normal" letter-spacing="0" text-anchor="start" word-spacing="0" writing-mode="lr-tb" xml:space="preserve" style="text-align:start;line-height:125%;-inkscape-font-specification:Sans"><tspan id="tspan5422-6" x="242.859" y="634.738">host kernel</tspan></text><path id="path8719-4-3-3" fill="none" stroke="#000" stroke-dasharray="none" stroke-linecap="butt" stroke-linejoin="miter" stroke-miterlimit="4" stroke-opacity="1" stroke-width=".531" marker-end="url(#Arrow2Lend-2)" marker-start="url(#Arrow2Lstart-9)" d="m 287.59307,570.00409 0,50" display="inline"/><rect id="rect4419-9" width="220" height="75" x="-32.407" y="530.004" fill="#ccc" fill-opacity="1" stroke="none"/><rect id="rect3878-5-4-8" width="100" height="20" x="27.859" y="619.738" fill="none" stroke="#000" stroke-dasharray="none" stroke-miterlimit="4" stroke-opacity="1" stroke-width=".531"/><text id="text5420-5" x="32.859" y="634.738" fill="#000" fill-opacity="1" stroke="none" font-family="Sans" font-size="16" font-stretch="normal" font-style="normal" font-variant="normal" font-weight="normal" letter-spacing="0" text-anchor="start" word-spacing="0" writing-mode="lr-tb" xml:space="preserve" style="text-align:start;line-height:125%;-inkscape-font-specification:Sans"><tspan id="tspan5422-61" x="32.859" y="634.738">host kernel</tspan></text><text id="text6457-1" x="69.859" y="549.738" fill="#000" fill-opacity="1" stroke="none" font-family="Sans" font-size="16" font-stretch="normal" font-style="normal" font-variant="normal" font-weight="normal" letter-spacing="0" text-anchor="start" word-spacing="0" writing-mode="lr-tb" xml:space="preserve" style="text-align:start;line-height:125%;-inkscape-font-specification:Sans"><tspan id="tspan6459-5" x="69.859" y="549.738">...</tspan></text><rect id="rect4419-0-9" width="90" height="20" x="92.859" y="549.738" fill="#ccc" fill-opacity="1" stroke="none"/><text id="text3903-0-0" x="127.593" y="600.004" fill="#000" fill-opacity="1" stroke="none" font-family="Sans" font-size="16" font-stretch="normal" font-style="normal" font-variant="normal" font-weight="normal" letter-spacing="0" text-anchor="start" word-spacing="0" writing-mode="lr-tb" xml:space="preserve" style="text-align:start;line-height:125%;-inkscape-font-specification:Sans"><tspan id="tspan3905-6-3" x="127.593" y="600.004" font-family="Sans" font-size="16" font-stretch="normal" font-style="normal" font-variant="normal" font-weight="normal" text-anchor="start" writing-mode="lr-tb" style="text-align:start;line-height:125%;-inkscape-font-specification:Sans">QEMU</tspan></text><path id="path8719-4-3-0" fill="none" stroke="#000" stroke-dasharray="none" stroke-linecap="butt" stroke-linejoin="miter" stroke-miterlimit="4" stroke-opacity="1" stroke-width=".531" marker-end="url(#Arrow2Lend-2)" marker-start="url(#Arrow2Lstart-9)" d="m 77.858825,604.73834 0,15" display="inline"/><path id="path8719-4-3-7-4" fill="none" stroke="#000" stroke-dasharray="none" stroke-linecap="butt" stroke-linejoin="miter" stroke-miterlimit="4" stroke-opacity="1" stroke-width=".531" marker-end="url(#Arrow2Lend-2)" marker-start="url(#Arrow2Lstart-9)" d="m 37.593066,555.00409 25,25" display="inline"/><path id="path8719-4-3-7-7-4" fill="none" stroke="#000" stroke-dasharray="none" stroke-linecap="butt" stroke-linejoin="miter" stroke-miterlimit="4" stroke-opacity="1" stroke-width=".531" marker-end="url(#Arrow2Lend-2)" marker-start="url(#Arrow2Lstart-9)" d="m 67.593066,580.00409 50.000004,-25" display="inline"/><rect id="rect5446" width="90" height="20" x="-27.407" y="535.004" fill="#fff" fill-opacity="1" stroke="#000" stroke-dasharray="1.593 1.593" stroke-dashoffset="0" stroke-miterlimit="4" stroke-opacity="1" stroke-width=".531"/><text id="text3880-8" x="-22.407" y="550.004" fill="#000" fill-opacity="1" stroke="none" font-family="Sans" font-size="16" font-stretch="normal" font-style="normal" font-variant="normal" font-weight="normal" letter-spacing="0" text-anchor="start" word-spacing="0" writing-mode="lr-tb" xml:space="preserve" style="text-align:start;line-height:125%;-inkscape-font-specification:Sans"><tspan font-style="normal" style="text-align:start;line-height:125%;-inkscape-font-specification:Sans" id="tspan3882-8" x="-22.407" y="550.004" font-family="Sans" font-size="16" font-stretch="normal" font-variant="normal" font-weight="normal" text-anchor="start" writing-mode="lr-tb">process 1</tspan></text><rect id="rect5446-7" width="115" height="20" x="-22.407" y="580.004" fill="#fff" fill-opacity="1" stroke="#000" stroke-dasharray="1.593 1.593" stroke-dashoffset="0" stroke-miterlimit="4" stroke-opacity="1" stroke-width=".531"/><text id="text3880-8-4" x="-17.407" y="595.004" fill="#000" fill-opacity="1" stroke="none" font-family="Sans" font-size="16" font-stretch="normal" font-style="normal" font-variant="normal" font-weight="normal" letter-spacing="0" text-anchor="start" word-spacing="0" writing-mode="lr-tb" xml:space="preserve" style="text-align:start;line-height:125%;-inkscape-font-specification:Sans"><tspan font-style="normal" style="text-align:start;line-height:125%;-inkscape-font-specification:Sans" id="tspan3882-8-4" x="-17.407" y="595.004" font-family="Sans" font-size="16" font-stretch="normal" font-variant="normal" font-weight="normal" text-anchor="start" writing-mode="lr-tb">guest kernel</tspan></text><rect id="rect5446-6" width="90" height="20" x="92.593" y="535.004" fill="#fff" fill-opacity="1" stroke="#000" stroke-dasharray="1.593 1.593" stroke-dashoffset="0" stroke-miterlimit="4" stroke-opacity="1" stroke-width=".531"/><text id="text3880-3-4" x="97.593" y="550.004" fill="#000" fill-opacity="1" stroke="none" font-family="Sans" font-size="16" font-stretch="normal" font-style="normal" font-variant="normal" font-weight="normal" letter-spacing="0" text-anchor="start" word-spacing="0" writing-mode="lr-tb" xml:space="preserve" style="text-align:start;line-height:125%;-inkscape-font-specification:Sans"><tspan font-style="normal" style="text-align:start;line-height:125%;-inkscape-font-specification:Sans" id="tspan3882-6-8" x="97.593" y="550.004" font-family="Sans" font-size="16" font-stretch="normal" font-variant="normal" font-weight="normal" text-anchor="start" writing-mode="lr-tb">process <tspan id="tspan3359-1" font-style="italic" style="-inkscape-font-specification:Sans Italic">N</tspan></tspan></text><text id="text5480" x="12.593" y="665.004" fill="#000" fill-opacity="1" stroke="none" font-family="Sans" font-size="16" font-stretch="normal" font-style="normal" font-variant="normal" font-weight="normal" letter-spacing="0" text-anchor="start" word-spacing="0" writing-mode="lr-tb" xml:space="preserve" style="text-align:start;line-height:125%;-inkscape-font-specification:Sans"><tspan style="-inkscape-font-specification:Sans Italic" id="tspan5482" x="12.593" y="665.004" font-style="italic">(a) system-mode</tspan></text><text id="text5484" x="232.593" y="665.004" fill="#000" fill-opacity="1" stroke="none" font-family="Sans" font-size="16" font-stretch="normal" font-style="normal" font-variant="normal" font-weight="normal" letter-spacing="0" text-anchor="start" word-spacing="0" writing-mode="lr-tb" xml:space="preserve" style="text-align:start;line-height:125%;-inkscape-font-specification:Sans"><tspan style="-inkscape-font-specification:Sans Italic" id="tspan5486" x="232.593" y="665.004" font-style="italic">(b) user-mode</tspan></text><text id="text5488" x="407.593" y="665.004" fill="#000" fill-opacity="1" stroke="none" font-family="Sans" font-size="16" font-stretch="normal" font-style="normal" font-variant="normal" font-weight="normal" letter-spacing="0" text-anchor="start" word-spacing="0" writing-mode="lr-tb" xml:space="preserve" style="text-align:start;line-height:125%;-inkscape-font-specification:Sans"><tspan id="tspan5490" x="407.593" y="665.004">(<tspan id="tspan5492" font-style="italic" style="-inkscape-font-specification:Sans Italic">c) user-mode + PRoot</tspan></tspan></text></g></svg>